<?xml version="1.0" encoding="UTF-8"?>
<svg version="1.1" xmlns="http://www.w3.org/2000/svg" width="2000" height="565">
<path d="M0 0 C1.03363995 -0.00384115 2.06727989 -0.00768229 3.13224226 -0.01163983 C4.26121331 -0.01077335 5.39018437 -0.00990687 6.55336666 -0.00901413 C7.75790349 -0.01198525 8.96244033 -0.01495637 10.20347828 -0.01801753 C13.5438958 -0.0251903 16.88426188 -0.02787627 20.2246834 -0.028615 C23.8288182 -0.03046821 27.43294191 -0.038017 31.03707027 -0.04475021 C38.91749235 -0.05832432 46.79790933 -0.06435707 54.67834115 -0.06876087 C59.60174082 -0.07152537 64.52513853 -0.07576315 69.44853687 -0.08026505 C83.0874475 -0.09245748 96.72635656 -0.10275621 110.36527252 -0.10614014 C111.67435039 -0.10646949 111.67435039 -0.10646949 113.00987428 -0.10680549 C113.88465287 -0.10702377 114.75943147 -0.10724204 115.6607185 -0.10746694 C117.43327908 -0.1079104 119.20583965 -0.10835696 120.97840023 -0.10880661 C121.85764697 -0.10902804 122.73689371 -0.10924947 123.64278429 -0.10947761 C137.8801411 -0.11342308 152.11744664 -0.13086955 166.35478366 -0.15416613 C180.98188245 -0.17790666 195.60895555 -0.19034325 210.23607391 -0.19150805 C218.4446148 -0.1924234 226.65308892 -0.19814009 234.86161137 -0.21632767 C241.85354762 -0.23176528 248.84539649 -0.23682766 255.83734656 -0.22858956 C259.40137777 -0.22469571 262.96523319 -0.22555025 266.52924252 -0.23964691 C270.40251169 -0.25482587 274.27553653 -0.24648171 278.14882565 -0.23606491 C279.26218165 -0.24412132 280.37553764 -0.25217772 281.5226317 -0.26047826 C296.11803159 -0.16904186 309.15154219 4.10709476 319.9517889 14.15486526 C332.1238172 27.20369221 335.1054265 41.17727994 335.06296444 58.52989578 C335.06670551 59.98460655 335.07130885 61.43931531 335.07669508 62.89402092 C335.08888309 66.87354973 335.08866962 70.85299421 335.08630633 74.83253741 C335.08589712 79.13113486 335.09694692 83.42970564 335.10642147 87.72829056 C335.12300718 96.14159761 335.12852983 104.55487663 335.12964623 112.96819867 C335.13059744 119.80574307 335.13471137 126.64327823 335.14104748 133.4808197 C335.15864987 152.87100141 335.16788741 172.261161 335.16638653 191.65135075 C335.16630662 192.6958455 335.16622671 193.74034025 335.16614437 194.81648636 C335.16606261 195.86225707 335.16598085 196.90802778 335.16589661 197.98548852 C335.16508302 214.94839091 335.18424164 231.91120465 335.2124211 248.87408139 C335.24113446 266.29580763 335.25496239 283.71749059 335.25323355 301.1392411 C335.25256933 310.91867881 335.25807647 320.69802348 335.27958965 330.47743988 C335.29778061 338.79976907 335.30216563 347.12196297 335.28857081 355.44430341 C335.28203184 359.69028659 335.28195754 363.93601006 335.29927731 368.18196869 C335.3149712 372.06925696 335.31218254 375.95607877 335.29470904 379.8433554 C335.29163109 381.24899104 335.29530149 382.65466118 335.30642919 384.06025614 C335.40297145 397.12054991 335.40297145 397.12054991 330.7955389 403.13142776 C326.91048142 406.78102721 322.55041532 406.63679406 317.45569515 406.47908401 C313.6406184 405.98049102 311.57165673 404.7687397 308.7955389 402.13142776 C306.31152412 397.92620133 305.42070116 394.85088453 305.42195129 389.98622894 C305.41496155 388.76822798 305.4079718 387.55022702 305.40077025 386.29531693 C305.40816297 384.95213188 305.4158252 383.60894829 305.42372799 382.26576614 C305.42115243 380.83228132 305.41725057 379.39879837 305.4121384 377.96532035 C305.40186741 374.03035654 305.41016587 370.09561707 305.42143524 366.16066408 C305.43028873 361.91512897 305.42178543 357.66962562 305.41522884 353.42409134 C305.40607134 346.06754653 305.40740198 338.71106409 305.41541386 331.35451889 C305.42664459 320.70730397 305.4176049 310.06017794 305.40285205 299.41297075 C305.37907645 282.12413764 305.36571421 264.83531549 305.36170101 247.54646683 C305.36145614 246.511749 305.36121127 245.47703117 305.36095899 244.41095826 C305.35841372 232.86994593 305.35784593 221.32893444 305.35889339 209.78792191 C305.35922641 205.6045723 305.35951181 201.42122269 305.35974789 197.23787308 C305.35981067 196.20562899 305.35987346 195.1733849 305.35993815 194.10986069 C305.36054321 176.8904696 305.34565149 159.6711291 305.31891483 142.4517591 C305.30311552 131.83353819 305.30084571 121.21548068 305.31604885 110.59725806 C305.32551963 103.31889372 305.32074957 96.0406278 305.30483503 88.76227501 C305.2961462 84.56455047 305.29398705 80.36708752 305.30936146 76.16937637 C305.32333818 72.32251408 305.3187844 68.47612436 305.29984044 64.62928745 C305.29624318 63.24168083 305.29933321 61.85403634 305.30999012 60.46646598 C305.37099684 51.94533091 305.10471037 43.43731568 299.48987013 36.52375627 C292.38558921 29.98268379 284.0557758 29.69365666 274.96720028 29.74374771 C273.79135746 29.73836217 272.61551464 29.73297664 271.40404022 29.7274279 C268.15765844 29.71563453 264.91160783 29.71720175 261.66522336 29.72459471 C258.15727682 29.72933688 254.64938461 29.71680725 251.14145565 29.7065773 C244.27573547 29.68940416 237.41010687 29.68854623 230.54437079 29.6937902 C224.96206716 29.69783609 219.37979055 29.69638337 213.79748821 29.69104195 C213.00215532 29.69029352 212.20682244 29.6895451 211.38738855 29.688774 C209.77152213 29.68724248 208.15565571 29.68570413 206.5397893 29.68415903 C191.39521909 29.67043924 176.25070057 29.6758679 161.10613154 29.68734425 C147.26204469 29.69727495 133.41809152 29.68433786 119.57402529 29.66041005 C105.3468537 29.63600604 91.11974435 29.62641445 76.89255226 29.63306278 C68.90990968 29.63655225 60.92736988 29.63434098 52.94474316 29.61681175 C46.14895167 29.60207342 39.35333534 29.6014755 32.55754723 29.61888266 C29.09293719 29.62738194 25.62863983 29.62956898 22.16404629 29.61423111 C18.40168492 29.60103217 14.64016996 29.61256086 10.87784481 29.63022232 C9.79183707 29.62061731 8.70582934 29.61101231 7.58691227 29.60111624 C0.27192313 29.67162478 -6.94673461 30.69268888 -12.82108295 35.43708712 C-20.16229091 43.46447788 -19.63625921 53.2475968 -19.59214115 63.38324356 C-19.59631695 64.9429122 -19.60179582 66.50257781 -19.60846096 68.0622378 C-19.62290193 72.33664319 -19.61867509 76.61085553 -19.61129415 80.88527143 C-19.60656147 85.49954304 -19.61907319 90.11377294 -19.62931156 94.72803116 C-19.64650267 103.76313238 -19.64733895 112.79816407 -19.64209866 121.8332774 C-19.63805646 129.17712464 -19.63950111 136.52095133 -19.64484692 143.86479759 C-19.64596955 145.43290378 -19.64596955 145.43290378 -19.64711486 147.03268887 C-19.64864634 149.15645103 -19.65018469 151.28021317 -19.65172983 153.40397532 C-19.6654559 173.31744104 -19.66001633 193.23086747 -19.64854462 213.1443323 C-19.63861119 231.36045424 -19.65155464 249.57647462 -19.67547881 267.7925809 C-19.69986334 286.50024349 -19.70947932 305.20785877 -19.70282608 323.91553694 C-19.69933255 334.41716151 -19.70157485 344.91870796 -19.71907711 355.42032051 C-19.73379095 364.35965961 -19.73444516 373.29886557 -19.7170062 382.23820203 C-19.70848729 386.79833103 -19.70636844 391.35822211 -19.72165775 395.91833878 C-19.73548815 400.09505096 -19.73076305 404.27132103 -19.71141852 408.44800753 C-19.70765314 409.95666557 -19.71059602 411.46535889 -19.72103017 412.97398555 C-19.78321151 422.65503079 -19.1738525 430.32637501 -12.8294611 438.00642776 C-6.88671068 442.81722572 -2.14355203 443.56901853 5.23961544 443.51669693 C6.18310362 443.52193263 7.12659181 443.52716832 8.09867054 443.53256267 C11.25613941 443.54651738 14.41319912 443.5392243 17.57068539 443.53206253 C19.83604959 443.53780531 22.10141074 443.54488818 24.36676693 443.55321121 C29.24328032 443.568325 34.11968423 443.57409851 38.99622059 443.57268333 C46.70681888 443.5706506 54.41726982 443.59021026 62.12782955 443.61285782 C72.93771923 443.64244327 83.74757942 443.66304704 94.55750179 443.67512894 C95.24310462 443.67589843 95.92870745 443.67666792 96.63508613 443.67746072 C99.41294084 443.68056293 102.19079557 443.68364575 104.96865034 443.68670077 C112.61350479 443.69522962 120.25835512 443.70613142 127.90320492 443.71809769 C128.58766673 443.71916571 129.27212855 443.72023372 129.97733163 443.72133411 C141.3963502 443.73943657 152.81533687 443.765482 164.23432881 443.79622883 C171.89950009 443.81615571 179.56459438 443.82573083 187.22979057 443.82718098 C191.99815114 443.82993117 196.7664692 443.84076102 201.53481197 443.8536911 C203.74591395 443.85797104 205.95702559 443.85883061 208.16812992 443.85601616 C211.18701108 443.85261435 214.20562399 443.8614006 217.22447872 443.87314224 C218.09880517 443.86916115 218.97313162 443.86518005 219.87395281 443.86107832 C225.30131454 443.89847767 231.16082202 443.95749096 235.5377264 447.56892776 C239.72510607 453.34462385 240.59310972 457.01884418 239.7955389 464.13142776 C237.79327032 468.06445533 235.64134097 470.91717809 231.7955389 473.13142776 C227.12577582 474.41529887 222.46686047 474.27379102 217.66394711 474.26514053 C216.74188095 474.26740609 215.8198148 474.26967165 214.86980724 474.27200586 C211.77863216 474.2783382 208.68750101 474.27751696 205.59632015 474.27669144 C203.38025004 474.27968351 201.16418044 474.28308616 198.94811153 474.28686905 C192.92499677 474.29571102 186.90189622 474.29804732 180.8787756 474.29868484 C177.11319487 474.29939554 173.34761776 474.30153031 169.58203793 474.30418205 C157.11581146 474.3129602 144.64959306 474.31760168 132.18336415 474.31685158 C131.51155858 474.31681162 130.839753 474.31677167 130.14758968 474.3167305 C129.47495767 474.31668962 128.80232566 474.31664874 128.10931087 474.31660662 C117.22553236 474.31620078 106.34178857 474.32575438 95.45802009 474.33986887 C84.26728549 474.3542661 73.07656355 474.36095441 61.88581848 474.36027509 C55.60942247 474.36002063 49.33306568 474.36284294 43.05667782 474.37345314 C37.14696051 474.38317012 31.23731961 474.38318865 25.32759953 474.37593651 C23.16577765 474.37489494 21.00395094 474.37722795 18.84213734 474.38329697 C-10.41110462 474.46006062 -10.41110462 474.46006062 -21.3919611 468.63142776 C-22.39912174 468.10911575 -22.39912174 468.10911575 -23.42662907 467.57625198 C-35.36276098 461.06172289 -43.36066702 450.72990705 -47.33719826 437.81935692 C-49.53759976 429.83880809 -49.76207065 422.10587333 -49.70566654 413.87456131 C-49.70956822 412.27885288 -49.71521557 410.68314795 -49.72243744 409.0874511 C-49.73708532 404.74111577 -49.72707501 400.39514669 -49.71270072 396.0488236 C-49.70153379 391.34666562 -49.71355228 386.64455664 -49.72254276 381.94240189 C-49.7364378 372.74666425 -49.72894702 363.55106444 -49.71386718 354.35533343 C-49.69696308 343.63719212 -49.70022283 332.91908472 -49.70396126 322.20093419 C-49.70983285 303.07308266 -49.69569503 283.94529707 -49.67101383 264.81746292 C-49.64708842 246.27316696 -49.64001311 227.72895905 -49.65050602 209.18465042 C-49.66192419 188.96902846 -49.66383469 168.75344718 -49.64940792 148.5378257 C-49.64788215 146.38090714 -49.64636179 144.22398858 -49.64484692 142.06707001 C-49.6440891 141.00594182 -49.64333129 139.94481363 -49.64255051 138.85153004 C-49.63781517 131.38698086 -49.63965375 123.9224499 -49.64391232 116.457901 C-49.64884702 107.35814 -49.64281857 98.25846212 -49.62301802 89.15872012 C-49.61317023 84.51923583 -49.60801374 79.87987792 -49.61591053 75.24038696 C-49.62300029 70.9879499 -49.61608621 66.7357671 -49.5983069 62.4833634 C-49.59428373 60.95060892 -49.59522619 59.41783101 -49.60182577 57.88508545 C-49.6683485 40.97967321 -46.31515494 26.79433719 -34.4622736 14.19783401 C-25.12378261 5.6510144 -12.75144999 0.01784364 0 0 Z " fill="#493EDB" transform="translate(69.20446109771729,5.868572235107422)"/>
<path d="M0 0 C5.42413025 2.3554614 7.5935952 8.38599946 9.75 13.5625 C12.41125378 20.73715213 13.90587607 27.28054338 13.2578125 34.98046875 C-5.39824785 42.2995518 -24.9538437 45.43406526 -44.7421875 47.98046875 C-44.21616943 48.3671875 -43.69015137 48.75390625 -43.14819336 49.15234375 C-26.95469918 61.15770518 -16.28580341 76.23414521 -12.96484375 96.3671875 C-10.20449616 115.77123819 -11.87878163 136.18418586 -23.59375 152.5703125 C-25.57276094 155.11093465 -27.62261546 157.55633684 -29.7421875 159.98046875 C-30.25136719 160.58503906 -30.76054688 161.18960938 -31.28515625 161.8125 C-50.16279427 182.53422606 -81.34922023 190.5001861 -108.26855469 191.89892578 C-119.23893724 192.26056295 -129.73326297 190.84793638 -140.44921875 188.6015625 C-143.83879832 187.85690599 -143.83879832 187.85690599 -147.7421875 187.98046875 C-148.95306267 190.15762834 -150.13493813 192.34383994 -151.3046875 194.54296875 C-151.64693359 195.15205078 -151.98917969 195.76113281 -152.34179688 196.38867188 C-154.7268712 200.94199559 -155.05608458 203.84099228 -153.7421875 208.98046875 C-152.49412715 212.47384341 -151.08977639 213.74944381 -147.8046875 215.41796875 C-130.05771914 223.6477151 -109.58291808 225.25080403 -90.43856812 227.8327179 C-19.26289454 237.44806664 -19.26289454 237.44806664 -1.6796875 258.328125 C8.71689002 272.56053657 10.06771576 291.87834298 7.71875 308.8828125 C3.9365838 328.02223595 -6.4611763 343.44100688 -22.640625 354.54321289 C-41.71115374 366.96656214 -63.2498005 374.03091367 -85.7421875 376.98046875 C-86.43763672 377.07473145 -87.13308594 377.16899414 -87.84960938 377.26611328 C-96.20028074 378.25426427 -104.59523197 378.22310243 -112.9921875 378.23046875 C-114.1870578 378.23197937 -114.1870578 378.23197937 -115.40606689 378.23352051 C-138.00628163 378.2142385 -159.03141604 375.58710217 -179.7421875 365.98046875 C-181.11310547 365.35398437 -181.11310547 365.35398437 -182.51171875 364.71484375 C-197.440622 357.2824284 -207.56168267 345.26009349 -213.015625 329.5859375 C-217.88469209 312.12535821 -213.23806868 294.93248644 -204.796875 279.4765625 C-197.43889411 266.66960682 -184.5880412 259.54498317 -171.7421875 252.98046875 C-172.52142578 252.19736328 -172.52142578 252.19736328 -173.31640625 251.3984375 C-182.8563266 241.32950123 -186.10631178 231.41965608 -185.94921875 217.73828125 C-185.09877379 202.30190297 -178.35363143 190.89509679 -167.7421875 179.98046875 C-168.35964844 179.55636719 -168.97710938 179.13226563 -169.61328125 178.6953125 C-189.55157312 164.88721083 -205.75683588 150.471099 -210.359375 125.65234375 C-212.87064812 101.56462202 -208.76502959 80.33192635 -193.7421875 60.98046875 C-177.62204767 41.28556988 -149.88829173 32.77371877 -125.47998047 30.20751953 C-106.87268063 28.66437802 -86.72964623 29.10802306 -69.25 36.30859375 C-65.33499002 37.35747493 -62.45837166 36.88033227 -58.85644531 34.99169922 C-56.63452966 33.64445756 -54.46868725 32.23139078 -52.3046875 30.79296875 C-50.6132251 29.69599313 -48.92045771 28.60102775 -47.2265625 27.5078125 C-46.33646484 26.93144043 -45.44636719 26.35506836 -44.52929688 25.76123047 C-38.79291324 22.09609538 -32.95091989 18.6019357 -27.12182617 15.08691406 C-22.67277677 12.39736934 -18.25060173 9.68617034 -13.90234375 6.8359375 C-12.80635864 6.1236499 -12.80635864 6.1236499 -11.68823242 5.39697266 C-10.3506643 4.52249985 -9.0207173 3.6362051 -7.70043945 2.73583984 C-5.02209219 0.99243247 -3.23673564 -0.02305367 0 0 Z M-154.74609375 69.2890625 C-166.30305928 84.49034114 -168.26594129 104.33131103 -166.34765625 122.7734375 C-163.71464264 138.89427565 -155.96531324 152.8567349 -143.1171875 163.06640625 C-130.14342605 172.00472446 -116.08582766 173.44987613 -100.7421875 171.98046875 C-96.40797351 171.15798465 -92.6992484 169.91368934 -88.7421875 167.98046875 C-87.88753906 167.56796875 -87.03289062 167.15546875 -86.15234375 166.73046875 C-73.05480122 159.62671687 -64.55217206 148.02203823 -59.359375 134.3359375 C-53.93437921 115.91750773 -54.98827785 95.01128634 -63.0546875 77.54296875 C-70.21458935 64.57244747 -80.53439632 55.91108847 -94.515625 51.0078125 C-117.46037174 44.39505037 -139.31379158 51.51032842 -154.74609375 69.2890625 Z M-156.07421875 261.8046875 C-157.30205078 263.22201172 -157.30205078 263.22201172 -158.5546875 264.66796875 C-159.00134766 265.17183105 -159.44800781 265.67569336 -159.90820312 266.19482422 C-166.25222397 273.55727553 -171.40915468 281.46887339 -173.7421875 290.98046875 C-173.92394531 291.68171875 -174.10570312 292.38296875 -174.29296875 293.10546875 C-176.06551339 304.44975444 -176.37817563 317.7476278 -170.7421875 327.98046875 C-170.3296875 328.73972656 -169.9171875 329.49898438 -169.4921875 330.28125 C-161.0221835 344.21344409 -148.36293108 352.97047623 -132.7421875 356.98046875 C-124.79386098 358.78942634 -117.13142985 359.33392697 -108.9921875 359.29296875 C-107.85128662 359.2887793 -106.71038574 359.28458984 -105.53491211 359.28027344 C-84.31808101 358.9969604 -63.74990885 352.60614422 -48.1875 337.65625 C-39.35099131 327.98690743 -35.07421048 318.12001561 -35.46875 305.0546875 C-36.24473696 296.33037701 -40.38647727 290.87434536 -46.7421875 284.98046875 C-67.53464149 267.82871682 -102.58555813 267.10635231 -128.25805664 263.67919922 C-128.98983124 263.58111465 -129.72160583 263.48303009 -130.47555542 263.38197327 C-131.906432 263.19183195 -133.33776642 263.00510076 -134.76956177 262.82200623 C-139.05314847 262.26195785 -143.22463101 261.45224323 -147.4453125 260.54296875 C-151.50858281 259.85355554 -152.31881214 259.74867943 -156.07421875 261.8046875 Z " fill="#000000" transform="translate(1381.7421875,156.01953125)"/>
<path d="M0 0 C0.80308594 0.25523438 1.60617187 0.51046875 2.43359375 0.7734375 C4.5625 1.625 4.5625 1.625 7.5625 3.625 C7.94726086 6.0262928 7.94726086 6.0262928 7.96122742 9.10452271 C7.97376556 10.26842529 7.98630371 11.43232788 7.9992218 12.63150024 C7.99778671 13.91471161 7.99635162 15.19792297 7.99487305 16.52001953 C8.00388554 17.87991226 8.01421149 19.23979683 8.02575684 20.59967041 C8.05341362 24.29780238 8.06262301 27.9957806 8.06861091 31.69400263 C8.07797214 35.55647064 8.10417358 39.41882277 8.12861633 43.28121948 C8.17234725 50.59806883 8.20085361 57.91489577 8.22393972 65.2318362 C8.25095617 73.56069015 8.29486977 81.8894279 8.34022844 90.21819901 C8.43316906 107.3537396 8.50480654 124.48930526 8.5625 141.625 C12.53161074 141.625 13.3233145 140.3094158 16.25 137.6875 C27.34797363 128.40263406 39.64660608 122.4779348 53.5625 118.625 C54.57441406 118.30660156 55.58632813 117.98820312 56.62890625 117.66015625 C81.64224169 110.86679731 109.12837638 115.6054292 131.5625 127.75 C138.39994313 131.86678513 143.94308083 137.01357432 149.5625 142.625 C150.29339844 143.34429687 151.02429688 144.06359375 151.77734375 144.8046875 C177.61184002 171.91811923 182.30243144 212.95052214 181.65576172 248.57080078 C180.65079028 281.48230006 169.12343849 313.63524741 144.890625 336.63671875 C118.82032917 358.90145127 87.9534848 367.84860699 54 367.875 C52.83058365 367.87601212 52.83058365 367.87601212 51.63754272 367.87704468 C38.40183015 367.8589073 25.60482571 366.99973171 12.5625 364.625 C11.60408203 364.45871094 10.64566406 364.29242188 9.65820312 364.12109375 C-26.18836188 357.79109208 -26.18836188 357.79109208 -38.4375 349.625 C-38.81009549 347.34398973 -38.81009549 347.34398973 -38.80664349 344.42819786 C-38.81261663 343.31997937 -38.81858978 342.21176087 -38.82474393 341.06996 C-38.81163614 339.22855261 -38.81163614 339.22855261 -38.79826355 337.34994507 C-38.80082682 336.05375012 -38.8033901 334.75755517 -38.80603105 333.42208159 C-38.81276502 329.81220176 -38.80070372 326.20258704 -38.78569686 322.59274101 C-38.77278245 318.70453248 -38.77712269 314.81633978 -38.77940369 310.92811584 C-38.78097934 304.18751843 -38.7715397 297.4470079 -38.75469017 290.70643234 C-38.73034421 280.96061784 -38.72249942 271.21484549 -38.7187262 261.46900387 C-38.71215478 245.65834853 -38.69217494 229.84773954 -38.66381836 214.03710938 C-38.63629562 198.67545809 -38.61505331 183.31381939 -38.60229492 167.95214844 C-38.60150675 167.00579629 -38.60071858 166.05944414 -38.59990653 165.08441465 C-38.59599151 160.33700541 -38.59220036 155.58959608 -38.58847082 150.84218669 C-38.55735343 111.43642534 -38.50449889 72.03071572 -38.4375 32.625 C-39.1173999 32.57030548 -39.7972998 32.51561096 -40.49780273 32.45925903 C-43.62370262 32.20663591 -46.74934882 31.95099369 -49.875 31.6953125 C-50.94427734 31.60934814 -52.01355469 31.52338379 -53.11523438 31.43481445 C-61.2689038 30.76469254 -69.34585188 29.84393417 -77.4375 28.625 C-78.27296178 24.57212159 -78.48810426 21.42351783 -77.625 17.375 C-77.45355469 16.52421875 -77.28210938 15.6734375 -77.10546875 14.796875 C-76.4375 12.625 -76.4375 12.625 -74.4375 10.625 C-72.02441406 10.05004883 -72.02441406 10.05004883 -68.953125 9.58203125 C-67.80432861 9.39858154 -66.65553223 9.21513184 -65.47192383 9.02612305 C-64.22306396 8.83187744 -62.9742041 8.63763184 -61.6875 8.4375 C-49.4745948 6.45966122 -37.50328568 3.91573927 -25.51464844 0.8605957 C-16.88066643 -1.27538461 -8.65347044 -2.87028084 0 0 Z M12.45071793 168.82953167 C10.09057539 172.32367481 10.06880428 174.33514014 10.08148193 178.52827454 C10.07806423 179.21041635 10.07464653 179.89255817 10.07112527 180.59537095 C10.06455214 182.87431496 10.08651109 185.15207327 10.10839844 187.4309082 C10.10952705 189.06709261 10.10889279 190.70327905 10.10662842 192.33946228 C10.10548086 196.77721889 10.12899678 201.21454294 10.15692425 205.65219903 C10.18193102 210.29131899 10.18427933 214.93044889 10.18902588 219.56962585 C10.20145778 228.35271486 10.23428231 237.13560468 10.27442384 245.91860598 C10.31913485 255.91850354 10.3411269 265.91841061 10.36120558 275.91838324 C10.40301474 296.48736666 10.473371 317.05617078 10.5625 337.625 C12.93487843 338.59060163 15.30874001 339.55223946 17.68359375 340.51171875 C18.34822632 340.78270386 19.01285889 341.05368896 19.69763184 341.33288574 C37.83770764 348.64339745 60.91961662 351.53841426 79.67578125 344.87109375 C80.62839844 344.45988281 81.58101562 344.04867187 82.5625 343.625 C83.50480469 343.22410156 84.44710937 342.82320312 85.41796875 342.41015625 C103.31454339 333.70166789 114.68574464 316.41797277 121.45117188 298.23681641 C133.45780775 263.20821877 135.57772855 215.5085415 119.81176758 181.1628418 C112.11698505 165.47059901 100.26764471 152.63595525 83.5625 146.625 C58.4314407 138.07619575 29.95641309 150.55498533 12.45071793 168.82953167 Z " fill="#000000" transform="translate(542.4375,68.375)"/>
<path d="M0 0 C5.8377861 5.14113187 11.57005904 10.60199282 16.3984375 16.71484375 C18.83214428 19.56575741 21.43906284 21.27478715 24.5859375 23.27734375 C24.9159375 23.93734375 25.2459375 24.59734375 25.5859375 25.27734375 C28.74833432 25.57546946 31.86566206 25.69322647 35.0390625 25.75585938 C40.10017671 25.95771315 40.10017671 25.95771315 42.5390625 27.5625 C44.42136037 30.64581628 44.13138265 33.79376737 43.5859375 37.27734375 C41.77430483 39.95165864 40.70832673 40.23654734 37.5859375 41.27734375 C36.19154086 41.34399751 34.79423875 41.36272574 33.3984375 41.33984375 C32.1403125 41.31921875 30.8821875 41.29859375 29.5859375 41.27734375 C29.83988281 41.86257813 30.09382812 42.4478125 30.35546875 43.05078125 C38.76472941 64.02668986 38.29936345 86.6994535 32.5859375 108.27734375 C33.8440625 108.21546875 35.1021875 108.15359375 36.3984375 108.08984375 C40.29862324 108.11051611 40.29862324 108.11051611 42.5234375 109.40234375 C44.05443576 112.10410539 44.4617117 114.1716988 44.5859375 117.27734375 C42.45550272 121.84256114 42.45550272 121.84256114 39.5859375 123.27734375 C38.0240895 123.3544368 36.461379 123.4145807 34.8984375 123.46484375 C29.09872775 124.05478557 26.28600066 125.84047148 22.5859375 130.27734375 C19.41221311 134.49397673 16.4746555 138.86238699 13.5859375 143.27734375 C15.60560939 147.69443764 18.52699794 150.65853401 21.8984375 154.08984375 C22.46755859 154.70021484 23.03667969 155.31058594 23.62304688 155.93945312 C24.18443359 156.51115234 24.74582031 157.08285156 25.32421875 157.671875 C25.82993408 158.19628174 26.33564941 158.72068848 26.85668945 159.26098633 C28.62100945 160.55956684 28.62100945 160.55956684 31.05102539 159.75415039 C33.5859375 159.27734375 33.5859375 159.27734375 35.54736328 160.45166016 C36.1607959 161.04640137 36.77422852 161.64114258 37.40625 162.25390625 C38.09364258 162.90391602 38.78103516 163.55392578 39.48925781 164.22363281 C40.18116211 164.90135742 40.87306641 165.57908203 41.5859375 166.27734375 C42.89419937 167.49524713 44.20406891 168.71142611 45.515625 169.92578125 C46.83173595 171.166902 48.14682045 172.40911202 49.4609375 173.65234375 C54.62190178 178.51353553 59.81639971 183.32480833 65.10546875 188.046875 C68.64407045 191.22883023 72.13402632 194.46246429 75.62744141 197.69384766 C79.29322646 201.08451076 82.96623838 204.4670122 86.6484375 207.83984375 C87.13940918 208.28956543 87.63038086 208.73928711 88.13623047 209.20263672 C89.12478265 210.10796977 90.11338927 211.01324338 91.10205078 211.91845703 C93.59758157 214.20376871 96.09168277 216.49063955 98.5859375 218.77734375 C99.58593075 219.69401779 100.58593074 220.61068445 101.5859375 221.52734375 C107.5859375 227.02734375 113.5859375 232.52734375 119.5859375 238.02734375 C120.32831665 238.7078479 120.32831665 238.7078479 121.08569336 239.40209961 C122.08653418 240.3195506 123.08734795 241.23703111 124.08813477 242.15454102 C126.57505011 244.43444926 129.06242065 246.71385668 131.55078125 248.9921875 C132.54169396 249.89970979 133.53257934 250.80726191 134.5234375 251.71484375 C135.01295898 252.16311523 135.50248047 252.61138672 136.00683594 253.07324219 C138.66069689 255.50551527 141.30854327 257.94403879 143.94921875 260.390625 C149.75709658 265.77079089 155.57636561 271.12109476 161.5859375 276.27734375 C160.28873826 279.13513392 158.9222549 281.18742911 156.69677734 283.39355469 C156.1163266 283.97385437 155.53587585 284.55415405 154.93783569 285.15203857 C154.00181015 286.07258026 154.00181015 286.07258026 153.046875 287.01171875 C152.40601959 287.64974426 151.76516418 288.28776978 151.10488892 288.94512939 C149.06155929 290.97728444 147.01137768 293.00236593 144.9609375 295.02734375 C143.5724589 296.40578905 142.1844326 297.78469011 140.796875 299.1640625 C137.39845053 302.54046269 133.99386496 305.91053663 130.5859375 309.27734375 C127.50218875 307.91482555 125.51125466 306.40508529 123.23046875 303.93359375 C122.61276611 303.26948486 121.99506348 302.60537598 121.35864258 301.92114258 C120.7117749 301.21368896 120.06490723 300.50623535 119.3984375 299.77734375 C118.39043091 298.68812622 118.39043091 298.68812622 117.36206055 297.5769043 C113.14098015 293.00588977 108.96011976 288.39908261 104.81640625 283.7578125 C102.14034838 280.78181119 99.42857014 277.84034825 96.7109375 274.90234375 C92.80634632 270.68113067 88.90743017 266.45502561 85.0234375 262.21484375 C84.57299072 261.72314697 84.12254395 261.2314502 83.65844727 260.72485352 C81.84915256 258.74945537 80.04030762 256.77364565 78.23144531 254.79785156 C73.02729058 249.11412029 67.81546118 243.4377519 62.5859375 237.77734375 C57.35781671 232.11845407 52.14749661 226.44351543 46.94482422 220.76123047 C44.65951254 218.26569968 42.3726417 215.77159848 40.0859375 213.27734375 C39.16926346 212.2773505 38.2525968 211.27735051 37.3359375 210.27734375 C36.8821875 209.78234375 36.4284375 209.28734375 35.9609375 208.77734375 C34.5859375 207.27734375 33.2109375 205.77734375 31.8359375 204.27734375 C31.38138184 203.78169922 30.92682617 203.28605469 30.45849609 202.77539062 C29.549022 201.78276646 28.64048088 200.78928662 27.73291016 199.79492188 C25.3384479 197.17401461 22.92594996 194.57322714 20.484375 191.99609375 C19.97841797 191.45726562 19.47246094 190.9184375 18.95117188 190.36328125 C17.98180915 189.33166587 17.00681505 188.30530354 16.02539062 187.28515625 C12.51953209 183.53590724 11.5859375 181.31626087 11.5859375 176.27734375 C10.19440852 174.47009133 10.19440852 174.47009133 8.3046875 172.703125 C7.28955078 171.70249023 7.28955078 171.70249023 6.25390625 170.68164062 C5.53847656 169.99134766 4.82304687 169.30105469 4.0859375 168.58984375 C3.37050781 167.88794922 2.65507812 167.18605469 1.91796875 166.46289062 C0.14714173 164.72748014 -1.63029706 162.99943645 -3.4140625 161.27734375 C-7.49148869 162.75729844 -10.96837504 164.76789502 -14.6640625 167.02734375 C-37.29034771 180.24634937 -64.98518728 183.8281708 -90.359375 177.3125 C-118.77782684 169.36257652 -140.25134077 151.26099684 -155.4140625 126.27734375 C-155.7440625 125.61734375 -156.0740625 124.95734375 -156.4140625 124.27734375 C-157.48366211 124.26799805 -158.55326172 124.25865234 -159.65527344 124.24902344 C-163.6290022 124.20910863 -167.60195794 124.14334654 -171.57519531 124.06982422 C-173.29384419 124.04162308 -175.01262255 124.02040421 -176.73144531 124.00634766 C-179.20444997 123.98490542 -181.67589925 123.93825219 -184.1484375 123.88671875 C-184.91524841 123.88549011 -185.68205933 123.88426147 -186.47210693 123.88299561 C-190.00640218 123.7862617 -192.02893958 123.57280357 -194.87207031 121.39160156 C-196.70900506 118.87294183 -197.33785797 117.40172953 -197.4140625 114.27734375 C-195.22003265 109.68032882 -195.22003265 109.68032882 -192.4140625 108.27734375 C-190.16285508 108.19160981 -187.90906947 108.17022187 -185.65625 108.1796875 C-184.66167282 108.18180992 -184.66167282 108.18180992 -183.64700317 108.18397522 C-181.52764387 108.18957621 -179.40838991 108.20212875 -177.2890625 108.21484375 C-175.85286611 108.21985863 -174.41666806 108.22442156 -172.98046875 108.22851562 C-169.45829905 108.23954593 -165.93619105 108.25681116 -162.4140625 108.27734375 C-162.72150391 107.32657959 -163.02894531 106.37581543 -163.34570312 105.39624023 C-169.90697992 84.32248672 -167.33540329 61.87295045 -160.4140625 41.27734375 C-161.29666748 41.2930542 -162.17927246 41.30876465 -163.08862305 41.32495117 C-166.37807136 41.37622373 -169.66709211 41.41376292 -172.95678711 41.44213867 C-174.37775391 41.45718135 -175.79867463 41.47762079 -177.21948242 41.50366211 C-179.26753136 41.54024722 -181.314964 41.55711472 -183.36328125 41.5703125 C-184.59393311 41.58602295 -185.82458496 41.6017334 -187.0925293 41.61791992 C-190.9811435 41.21919763 -193.63175249 40.05965376 -196.4140625 37.27734375 C-196.89124432 29.88102549 -196.89124432 29.88102549 -195.1411438 27.66697693 C-192.10326508 25.22265826 -188.191603 26.05110834 -184.46875 26.1875 C-182.65107192 26.20909738 -180.83335872 26.22788675 -179.015625 26.24414062 C-176.15667374 26.2830729 -173.30262116 26.33934205 -170.4453125 26.44506836 C-160.17036317 27.21475924 -160.17036317 27.21475924 -150.70199585 24.13360596 C-147.48870308 20.98505596 -145.52385878 17.19835984 -143.4140625 13.27734375 C-130.4166625 -2.94589031 -113.07425238 -13.55797691 -93.4140625 -19.72265625 C-92.37894531 -20.06296875 -91.34382813 -20.40328125 -90.27734375 -20.75390625 C-59.03600487 -29.22081867 -24.61617803 -20.22875198 0 0 Z M-91.4140625 3.27734375 C-92.30996094 3.56609375 -93.20585937 3.85484375 -94.12890625 4.15234375 C-102.42347212 7.08754558 -110.20387453 12.06715578 -116.4140625 18.27734375 C-82.7540625 18.27734375 -49.0940625 18.27734375 -14.4140625 18.27734375 C-28.85082831 3.84057794 -47.90125149 -0.98472557 -67.80566406 -1.04394531 C-76.24003948 -0.94112097 -83.42856563 0.45547492 -91.4140625 3.27734375 Z M-138.4140625 48.27734375 C-142.69445221 58.97831804 -144.57987008 66.87625604 -144.7265625 78.08984375 C-144.74428711 78.89534668 -144.76201172 79.70084961 -144.78027344 80.53076172 C-144.77124305 88.0937106 -143.21831867 93.45890036 -141.4140625 101.27734375 C-91.2540625 101.27734375 -41.0940625 101.27734375 10.5859375 101.27734375 C15.3634226 89.333631 15.38102109 77.13873147 13.2734375 64.65234375 C13.09711792 63.59515137 13.09711792 63.59515137 12.91723633 62.51660156 C11.97565181 57.36405852 10.47816826 53.32329244 8.5859375 48.27734375 C-39.9240625 48.27734375 -88.4340625 48.27734375 -138.4140625 48.27734375 Z M-124.4140625 130.27734375 C-110.3641436 146.6689158 -93.63123073 155.37111518 -72.078125 158.0234375 C-50.47669358 159.5203384 -31.35491818 152.64854971 -14.1328125 139.68359375 C-10.65721339 136.71838638 -10.65721339 136.71838638 -5.4140625 130.27734375 C-44.6840625 130.27734375 -83.9540625 130.27734375 -124.4140625 130.27734375 Z " fill="#493EDB" transform="translate(288.4140625,230.72265625)"/>
<path d="M0 0 C25.02996192 22.11460009 39.26428775 53.36652228 41.85498047 86.52148438 C44.15052292 125.75439177 37.57118449 164.63945415 11 195 C-3.81841216 211.45761705 -22.40830802 222.69419173 -44 228 C-45.20527344 228.2990625 -46.41054687 228.598125 -47.65234375 228.90625 C-67.53258371 233.24012281 -92.35241829 233.39746261 -112 228 C-112.71043457 227.80664062 -113.42086914 227.61328125 -114.15283203 227.4140625 C-129.98593434 222.97545108 -144.67295433 216.00247577 -157 205 C-157.81597656 204.32582031 -158.63195312 203.65164063 -159.47265625 202.95703125 C-182.81827329 183.14753549 -195.08609651 151.939249 -198 122 C-198.14737898 119.17920996 -198.18675976 116.36338516 -198.203125 113.5390625 C-198.20882507 112.7496225 -198.21452515 111.9601825 -198.22039795 111.14682007 C-198.22978961 109.48119418 -198.23635852 107.8155502 -198.24023438 106.14990234 C-198.24984147 103.66598728 -198.28087916 101.18293691 -198.3125 98.69921875 C-198.54013501 64.38643766 -187.15323463 30.84829174 -163 6 C-147.12426292 -9.43502261 -127.55274069 -19.34816118 -106 -24 C-104.97648438 -24.22558594 -103.95296875 -24.45117188 -102.8984375 -24.68359375 C-67.19244365 -31.10712862 -28.10041961 -23.5154015 0 0 Z M-123 14 C-147.4831836 45.13270195 -149.65644208 93.01927167 -145.17504883 130.95605469 C-141.49597784 156.77148884 -133.25597114 183.26617557 -112 200 C-97.06224938 210.1561238 -79.16463318 212.10064319 -61.75 208.875 C-47.20747145 205.30547027 -35.85089537 197.32778326 -27.65234375 184.76953125 C-4.91974813 146.66690644 -6.00667204 95.68547523 -16.54248047 53.84570312 C-21.75876218 34.02290199 -31.8579484 13.31724841 -49.75 2.25 C-55.33711753 -0.87262459 -60.7508179 -2.71732716 -67 -4 C-67.969375 -4.226875 -68.93875 -4.45375 -69.9375 -4.6875 C-90.42012821 -6.7775641 -109.01760852 -1.53599053 -123 14 Z " fill="#000000" transform="translate(1090,205)"/>
<path d="M0 0 C6.26373677 -0.09960005 12.47313903 -0.07137872 18.72398376 0.35488892 C30.46403848 1.14420653 42.19617709 1.15192398 53.95825195 1.13037109 C57.42859271 1.12501375 60.89880378 1.13034801 64.36914062 1.13671875 C75.94863133 1.1398629 87.4696304 0.95827359 99.02685547 0.22045898 C104.68881963 -0.09370801 110.330095 -0.09161426 116 0 C117.21100036 2.42200072 117.16703092 4.04808209 117.1875 6.75 C117.20167969 7.59046875 117.21585938 8.4309375 117.23046875 9.296875 C116.73563372 15.10070276 116.73563372 15.10070276 115 18 C111.23276979 19.61846636 107.31952284 20.37478814 103.3125 21.1875 C101.16158008 21.65475549 99.01179886 22.12728856 96.86328125 22.60546875 C95.90719971 22.80293701 94.95111816 23.00040527 93.96606445 23.20385742 C90.44304632 24.14949592 87.3239376 25.50131462 84 27 C87.95974147 37.80975101 92.19217317 48.47936743 96.6322937 59.10031128 C97.72396674 61.7122504 98.811792 64.32576427 99.89868164 66.93969727 C101.4555062 70.68337529 103.01337488 74.42661546 104.57226562 78.16943359 C139.45624016 161.93719746 139.45624016 161.93719746 146 192 C147.85253332 188.68165409 148.74248464 185.42942364 149.62890625 181.7421875 C149.93642822 180.49115234 150.2439502 179.24011719 150.56079102 177.95117188 C150.7231424 177.28786865 150.88549377 176.62456543 151.05276489 175.94116211 C157.43057545 150.08932195 167.01432822 125.51625093 176.62162781 100.73106384 C180.81114509 89.91698327 184.97002335 79.09115423 189.11571121 68.26020718 C190.29338615 65.18359985 191.47291469 62.10772526 192.65515137 59.03286743 C193.98702953 55.56877234 195.31431778 52.10294997 196.640625 48.63671875 C197.03689087 47.60904388 197.43315674 46.58136902 197.84143066 45.52255249 C198.21376831 44.5466214 198.58610596 43.57069031 198.96972656 42.56518555 C199.45146332 41.30933907 199.45146332 41.30933907 199.94293213 40.02812195 C201.44199301 35.73384786 202.6930259 31.35658033 204 27 C193.77 24.03 183.54 21.06 173 18 C172.07959931 10.63679447 171.72730368 6.54539264 175 0 C181.05994978 -0.09988928 187.04247497 -0.03983795 193.08203125 0.49609375 C201.95706327 1.15591473 210.81770584 1.15030506 219.71362305 1.13037109 C222.56108913 1.12500266 225.408398 1.13035242 228.25585938 1.13671875 C237.02360271 1.13963037 245.69109679 1.01547805 254.42700195 0.22265625 C257.5618072 -0.04861639 260.66713496 -0.10039596 263.8125 -0.0625 C265.30716797 -0.04896484 265.30716797 -0.04896484 266.83203125 -0.03515625 C267.54746094 -0.02355469 268.26289062 -0.01195312 269 0 C269.02698422 2.43757413 269.04683099 4.87484915 269.0625 7.3125 C269.07087891 8.00279297 269.07925781 8.69308594 269.08789062 9.40429688 C269.10307906 12.5483025 269.00193327 14.99420019 268 18 C265.70263672 18.84375 265.70263672 18.84375 262.6796875 19.5 C261.04 19.87125 261.04 19.87125 259.3671875 20.25 C258.21476562 20.4975 257.06234375 20.745 255.875 21 C251.5676889 21.94406819 247.28089258 22.94291788 243 24 C242.28513428 24.13438477 241.57026855 24.26876953 240.83374023 24.40722656 C237.69056642 25.25940843 236.16914545 26.71537373 234.54101562 29.45507812 C232.97993878 32.83563167 231.62495409 36.26834709 230.3125 39.75 C229.79602416 41.06383953 229.27734145 42.37681341 228.7565918 43.68896484 C227.40449087 47.11395607 226.08273999 50.54980573 224.76953125 53.98986816 C223.57883043 57.10015851 222.36663776 60.20201525 221.15625 63.3046875 C219.45858169 67.66739577 217.76984887 72.03333582 216.09140015 76.40345764 C212.0258259 86.98381413 207.86091621 97.52429811 203.6875 108.0625 C203.14162231 109.44137894 203.14162231 109.44137894 202.5847168 110.84811401 C200.75331726 115.47415608 198.92129829 120.0999524 197.08886719 124.72558594 C193.99186589 132.54429738 190.90108752 140.36546169 187.8125 148.1875 C187.51655945 148.93673737 187.2206189 149.68597473 186.91571045 150.45791626 C182.43084681 161.81380749 177.96740535 173.17801323 173.51124573 184.54519653 C168.81800938 196.51523879 164.11154942 208.48005403 159.40008545 220.44293213 C158.01656975 223.95790277 156.63529402 227.47374693 155.25439453 230.98974609 C135.9319527 280.15117639 135.9319527 280.15117639 126 299 C125.35611328 300.24015869 125.35611328 300.24015869 124.69921875 301.50537109 C119.2444232 311.94734944 113.1596156 321.64630865 106 331 C105.28328125 331.94101562 104.5665625 332.88203125 103.828125 333.8515625 C91.68608356 349.22852738 76.23954396 365.50026613 55.875 368.453125 C53.24716398 368.70786421 50.63769383 368.89796155 48 369 C19.74275362 327.82719404 19.74275362 327.82719404 21 306 C34.32945172 299.35977681 34.32945172 299.35977681 40 300 C43.53224001 302.9107687 46.20719764 306.39282989 49 310 C50.45550223 311.77316104 51.91383841 313.54399961 53.375 315.3125 C54.10332031 316.21226562 54.83164063 317.11203125 55.58203125 318.0390625 C59.97867546 323.42299839 64.49658545 328.70533131 69 334 C81.56279604 329.81240132 91.16078337 305.98390088 97 295 C97.46647949 294.12746582 97.93295898 293.25493164 98.41357422 292.35595703 C114.07533741 266.03250329 114.07533741 266.03250329 119.15679932 238.00570679 C118.69803406 236.88282257 118.2392688 235.75993835 117.76660156 234.60302734 C117.51304398 233.97212031 117.25948639 233.34121328 116.99824524 232.69118786 C116.14120828 230.5676111 115.26585023 228.45207626 114.390625 226.3359375 C113.7658126 224.7979166 113.14220988 223.25940381 112.51971436 221.72044373 C111.16262698 218.37229972 109.79752388 215.02757774 108.42626953 211.68521118 C106.2230972 206.31448243 104.0376952 200.93664065 101.85546875 195.55737305 C99.49459598 189.73985514 97.13262028 183.92279861 94.76501465 178.10801697 C85.38807179 155.07494158 76.12175265 131.99750246 66.8548584 108.91998291 C64.50075484 103.05809111 62.14419612 97.19719043 59.78657913 91.33671093 C57.99003707 86.87067598 56.1943876 82.40428247 54.39890289 77.93782234 C53.56964068 75.87538563 52.74006217 73.81307605 51.9101181 71.75091362 C47.54943798 60.91469881 43.21523405 50.0680748 38.9296875 39.2019043 C38.53556671 38.20939824 38.14144592 37.21689219 37.73538208 36.19431019 C37.37652924 35.28079131 37.01767639 34.36727243 36.64794922 33.42607117 C36.32897675 32.61789287 36.01000427 31.80971457 35.68136597 30.97704601 C35 29 35 29 35 27 C34.44199707 26.89768066 33.88399414 26.79536133 33.30908203 26.68994141 C25.74271063 25.24488476 18.32183327 23.3363715 10.875 21.375 C9.63234375 21.05015625 8.3896875 20.7253125 7.109375 20.390625 C4.07223931 19.5962972 1.03581206 18.79936874 -2 18 C-2.054348 15.9377952 -2.09294961 13.87517184 -2.125 11.8125 C-2.14820313 10.66394531 -2.17140625 9.51539063 -2.1953125 8.33203125 C-2.00484152 5.08259628 -1.39360127 2.91339479 0 0 Z " fill="#000000" transform="translate(1706,186)"/>
<path d="M0 0 C-1.31539611 45.31539611 -1.31539611 45.31539611 -9 53 C-11.80177966 53.10027422 -14.57349112 53.13873289 -17.375 53.125 C-18.15617187 53.12886719 -18.93734375 53.13273437 -19.7421875 53.13671875 C-23.0765946 53.13100915 -25.81606986 53.06131005 -29 52 C-30.48120273 44.29831622 -31.6577812 36.59466347 -32.625 28.8125 C-32.7590625 27.78447266 -32.893125 26.75644531 -33.03125 25.69726562 C-33.73554775 20.08085043 -34.14911913 14.65974899 -34 9 C-44.59953664 6.20671034 -57.05188838 4.67065449 -67 10 C-78.44564406 17.73484578 -82.67025301 31.36999807 -85.50183105 44.28971863 C-88.4325708 60.20347443 -88.54052041 76.18041958 -88.6875 92.3125 C-88.790625 101.119375 -88.89375 109.92625 -89 119 C-67.22 119 -45.44 119 -23 119 C-23 136 -23 136 -27 144 C-47.46 144 -67.92 144 -89 144 C-88.67 202.41 -88.34 260.82 -88 321 C-73.48 323.97 -58.96 326.94 -44 330 C-42.21784251 331.78215749 -42.82717753 334.34288464 -42.8125 336.75 C-42.79832031 337.79671875 -42.78414062 338.8434375 -42.76953125 339.921875 C-43.00155787 343.02080677 -43.68944133 345.20276014 -45 348 C-54.85639026 348.11329184 -64.66482829 347.96186203 -74.51171875 347.50390625 C-86.69726353 346.98042032 -98.86344196 346.84620694 -111.05908203 346.86962891 C-114.39490222 346.87503224 -117.73058985 346.86961477 -121.06640625 346.86328125 C-132.40276685 346.86009619 -143.67924109 347.0622074 -154.99389648 347.77954102 C-160.66095939 348.12665114 -166.32421439 348.09170928 -172 348 C-172.054138 345.75026553 -172.09285491 343.50015617 -172.125 341.25 C-172.14820313 339.99703125 -172.17140625 338.7440625 -172.1953125 337.453125 C-172.00604268 334.10683455 -171.87520319 332.6854161 -170 330 C-167.64916992 329.02685547 -167.64916992 329.02685547 -164.73046875 328.3671875 C-163.67666016 328.11839844 -162.62285156 327.86960937 -161.53710938 327.61328125 C-160.43173828 327.36964844 -159.32636719 327.12601562 -158.1875 326.875 C-156.01362876 326.37540673 -153.84042408 325.87290227 -151.66796875 325.3671875 C-150.70141357 325.15175293 -149.7348584 324.93631836 -148.73901367 324.71435547 C-145.97262951 324.05675574 -145.97262951 324.05675574 -143.33325195 322.91455078 C-141 322 -141 322 -138 322 C-138 263.26 -138 204.52 -138 144 C-147.9 144 -157.8 144 -168 144 C-169.01466075 139.94135699 -168.88552462 137.81350591 -168.25 133.75 C-168.09015625 132.67234375 -167.9303125 131.5946875 -167.765625 130.484375 C-167 127 -167 127 -164 119 C-155.42 119 -146.84 119 -138 119 C-138.02320313 116.9684375 -138.04640625 114.936875 -138.0703125 112.84375 C-138.39908752 76.43926897 -137.65575148 38.78450166 -112 10 C-111.32324219 9.22914062 -110.64648438 8.45828125 -109.94921875 7.6640625 C-81.93501579 -22.3474968 -32.912599 -19.19351965 0 0 Z " fill="#000000" transform="translate(1718,81)"/>
<path d="M0 0 C1.01191406 0.35964844 2.02382813 0.71929687 3.06640625 1.08984375 C5.4375 2.0625 5.4375 2.0625 6.4375 3.0625 C6.53991376 4.81905089 6.57149802 6.5797524 6.5761652 8.33928013 C6.58163964 9.49079172 6.58711409 10.64230331 6.59275442 11.82870919 C6.59373253 13.10980928 6.59471064 14.39090938 6.59571838 15.71083069 C6.60028007 17.07287936 6.6052795 18.43492662 6.61068195 19.79697222 C6.62431736 23.55722914 6.63169696 27.31747699 6.63810861 31.07775223 C6.64608894 35.12618146 6.6597948 39.17459163 6.67282104 43.2230072 C6.69461752 50.24296029 6.71275036 57.26291528 6.72842598 64.2828846 C6.75109582 74.43270122 6.77924258 84.58249678 6.80874526 94.73229557 C6.85645665 111.19790456 6.89971118 127.66352214 6.94018555 144.12915039 C6.97952245 160.12818064 7.02094432 176.12720323 7.06518555 192.1262207 C7.06790982 193.11166652 7.07063409 194.09711234 7.07344092 195.11242015 C7.0871201 200.05589312 7.10084043 204.99936598 7.11458123 209.94283879 C7.22860171 250.9827101 7.33512517 292.02259813 7.4375 333.0625 C18.9875 336.0325 30.5375 339.0025 42.4375 342.0625 C43.5625 352.1875 43.5625 352.1875 42 356.125 C41.71253906 356.87910156 41.42507813 357.63320313 41.12890625 358.41015625 C40.78666016 359.22806641 40.78666016 359.22806641 40.4375 360.0625 C34.41568851 360.17067625 28.43377762 360.09162439 22.42176819 359.70761108 C10.29403848 358.94646648 -1.82062948 358.9102059 -13.96850586 358.93212891 C-17.49141756 358.93748695 -21.01420152 358.93215046 -24.53710938 358.92578125 C-36.52724961 358.92257772 -48.46131599 359.123394 -60.4309082 359.84204102 C-65.80712907 360.1572923 -71.17910275 360.16097678 -76.5625 360.0625 C-77.37848839 354.52633262 -77.80544427 349.59925175 -76.5625 344.0625 C-74.02327332 341.52327332 -72.10978529 341.25278752 -68.63671875 340.37109375 C-66.85297852 339.91379883 -66.85297852 339.91379883 -65.03320312 339.44726562 C-63.78474609 339.13466797 -62.53628906 338.82207031 -61.25 338.5 C-59.3947168 338.02530273 -59.3947168 338.02530273 -57.50195312 337.54101562 C-52.53185093 336.27633808 -47.59294619 335.06858924 -42.5625 334.0625 C-42.5625 234.4025 -42.5625 134.7425 -42.5625 32.0625 C-50.8125 31.4025 -59.0625 30.7425 -67.5625 30.0625 C-78.825 28.7375 -78.825 28.7375 -81.5625 28.0625 C-83.61202336 23.96345328 -82.67814064 19.56636277 -81.6875 15.25 C-80.5625 12.0625 -80.5625 12.0625 -78.5625 10.0625 C-76.27937853 9.54498013 -73.97255755 9.13068754 -71.66015625 8.765625 C-70.21019848 8.52950014 -68.7602476 8.29333297 -67.31030273 8.05712891 C-66.16354568 7.87503876 -66.16354568 7.87503876 -64.99362183 7.68927002 C-51.62460574 5.56269819 -38.41972155 3.13015369 -25.26782227 -0.10839844 C-16.47440047 -2.20391199 -8.65881671 -3.17226531 0 0 Z " fill="#000000" transform="translate(826.5625,68.9375)"/>
<path d="M0 0 C1.36511719 0.53947266 1.36511719 0.53947266 2.7578125 1.08984375 C4.875 2.0625 4.875 2.0625 5.875 3.0625 C5.9852803 5.80592202 6.02996811 8.52470941 6.03321838 11.26905823 C6.04062535 12.57503484 6.04062535 12.57503484 6.04818195 13.90739483 C6.06363658 16.84784777 6.071939 19.78827876 6.08032227 22.72875977 C6.08989454 24.82740474 6.09990423 26.92604777 6.11032104 29.02468872 C6.1374467 34.74137689 6.15841465 40.45807338 6.17832303 46.17479062 C6.20013551 52.14192819 6.22754729 58.10903989 6.25437927 64.07615662 C6.30437045 75.38442755 6.34928536 86.69271278 6.39240164 98.00101179 C6.44171923 110.87142388 6.49665761 123.74181002 6.55208123 136.61219704 C6.66599987 163.09560717 6.77281727 189.57904217 6.875 216.0625 C8.23032837 216.46359985 8.23032837 216.46359985 9.61303711 216.87280273 C12.95527999 217.86356747 16.29664526 218.85718885 19.63745117 219.8527832 C21.08535004 220.28362616 22.53359214 220.71331734 23.98217773 221.1418457 C26.06064051 221.75692278 28.13784595 222.37609041 30.21484375 222.99609375 C31.46644287 223.36790771 32.71804199 223.73972168 34.00756836 224.12280273 C36.875 225.0625 36.875 225.0625 37.875 226.0625 C38.00119896 227.97602846 38.05080701 229.89485023 38.0625 231.8125 C38.07667969 232.85921875 38.09085938 233.9059375 38.10546875 234.984375 C37.87344213 238.08330677 37.18555867 240.26526014 35.875 243.0625 C29.22660567 243.16495813 22.65036887 243.08408938 16.01953125 242.56640625 C5.5213815 241.84146019 -4.98698698 241.91259103 -15.50512695 241.93212891 C-18.92078116 241.93747384 -22.33630297 241.93216151 -25.75195312 241.92578125 C-37.24121433 241.92260925 -48.67147126 242.11205773 -60.13867188 242.84204102 C-65.8051118 243.15541652 -71.45065852 243.15418595 -77.125 243.0625 C-77.179138 240.81276553 -77.21785491 238.56265617 -77.25 236.3125 C-77.27320313 235.05953125 -77.29640625 233.8065625 -77.3203125 232.515625 C-77.13119833 229.17208644 -76.99360094 227.7487879 -75.125 225.0625 C-72.82177734 224.10522461 -72.82177734 224.10522461 -69.9609375 223.46484375 C-68.92066406 223.22056641 -67.88039063 222.97628906 -66.80859375 222.72460938 C-65.71675781 222.48548828 -64.62492187 222.24636719 -63.5 222 C-61.36095024 221.51361776 -59.22290043 221.02281424 -57.0859375 220.52734375 C-55.65967041 220.21204712 -55.65967041 220.21204712 -54.20458984 219.89038086 C-50.4311617 218.87597664 -46.78361276 217.43447979 -43.125 216.0625 C-42.795 155.3425 -42.465 94.6225 -42.125 32.0625 C-50.045 31.4025 -57.965 30.7425 -66.125 30.0625 C-76.8125 28.796875 -76.8125 28.796875 -82.125 28.0625 C-82.17960198 26.1878321 -82.21806244 24.31269095 -82.25 22.4375 C-82.27320313 21.39335937 -82.29640625 20.34921875 -82.3203125 19.2734375 C-82.11402575 15.88208334 -81.25013167 13.25102193 -80.125 10.0625 C-78.70127075 9.83699463 -78.70127075 9.83699463 -77.2487793 9.60693359 C-72.76834776 8.89401808 -68.29005895 8.16822486 -63.8125 7.4375 C-62.99999786 7.30510925 -62.18749573 7.17271851 -61.35037231 7.03631592 C-49.4091572 5.0778418 -37.61700369 2.81746355 -25.86791992 -0.10791016 C-17.14844719 -2.20429552 -8.52864709 -3.49351288 0 0 Z " fill="#000000" transform="translate(1488.125,185.9375)"/>
<path d="M0 0 C0.9055227 0.00086648 1.8110454 0.00173296 2.74400818 0.0026257 C4.17544165 -0.00183098 4.17544165 -0.00183098 5.63579297 -0.0063777 C8.85946494 -0.01510562 12.08309996 -0.01657638 15.30678284 -0.01806521 C17.60745301 -0.02269048 19.90812241 -0.02771473 22.2087909 -0.03311038 C28.47732795 -0.04626404 34.74585428 -0.05268504 41.01440299 -0.05712104 C44.92595261 -0.06004683 48.83749926 -0.06415067 52.7490474 -0.06862521 C63.5715389 -0.08073842 74.39402715 -0.09111915 85.2165252 -0.0945003 C85.90965642 -0.09471987 86.60278765 -0.09493944 87.31692285 -0.09516566 C88.0117462 -0.09538393 88.70656955 -0.09560221 89.42244816 -0.0958271 C90.83050764 -0.09627057 92.23856711 -0.09671714 93.64662659 -0.09716678 C94.34507802 -0.09738821 95.04352944 -0.09760964 95.76314606 -0.09783778 C107.08397334 -0.10178691 118.40473629 -0.11924329 129.72553872 -0.1425263 C141.33872599 -0.16621853 152.95187777 -0.178443 164.56508946 -0.17986822 C171.08940574 -0.18091905 177.61363135 -0.18688564 184.13792527 -0.20468783 C190.27247488 -0.2211002 196.40686502 -0.22335741 202.54142869 -0.21454883 C204.79775397 -0.21377479 207.05408758 -0.21816904 209.31039155 -0.22800708 C212.38139307 -0.24061601 215.45182025 -0.23491025 218.52281678 -0.22442508 C219.42387803 -0.23248148 220.32493929 -0.24053789 221.25330544 -0.24883842 C222.07377645 -0.24224858 222.89424746 -0.23565874 223.73958123 -0.2288692 C224.80331406 -0.22976483 224.80331406 -0.22976483 225.88853645 -0.23067856 C228.3403847 0.25887142 229.21757834 1.21354683 230.76039612 3.1430676 C231.78133067 6.1273378 231.85747408 7.76358103 231.07289612 10.8305676 C229.53021354 13.54862738 228.61054582 14.00013982 225.76039612 15.1430676 C223.79343808 15.39376593 223.79343808 15.39376593 221.68738282 15.39474988 C220.47736525 15.40257312 220.47736525 15.40257312 219.24290287 15.41055441 C217.92209548 15.40386224 217.92209548 15.40386224 216.57460511 15.39703488 C215.63479263 15.40015486 214.69498015 15.40327485 213.7266885 15.40648937 C210.56989229 15.41448213 207.41328761 15.4081407 204.25648987 15.40185666 C201.99640775 15.40456595 199.73632651 15.40812653 197.47624695 15.41247678 C191.33176116 15.42161038 185.18734238 15.4180525 179.04285538 15.41171861 C172.619843 15.40666365 166.19683646 15.41134865 159.77382386 15.41449094 C148.29501125 15.41836544 136.81623584 15.41214062 125.33742952 15.40197226 C114.92794752 15.39303666 104.51851013 15.39458868 94.10902894 15.40380979 C82.02322636 15.41451081 69.93745749 15.41849791 57.85164845 15.41258526 C51.45312725 15.40946328 45.05463679 15.40906248 38.65611756 15.41565824 C32.64137562 15.42142502 26.62671812 15.41744699 20.61198533 15.40586972 C18.4012349 15.40321957 16.1904774 15.40399426 13.97972977 15.40839505 C10.96845213 15.41383786 7.95744727 15.40703164 4.94618714 15.39703488 C3.62537974 15.40372705 3.62537974 15.40372705 2.27788937 15.41055441 C1.0678718 15.40273117 1.0678718 15.40273117 -0.16659057 15.39474988 C-0.86158881 15.39442518 -1.55658704 15.39410047 -2.27264583 15.39376593 C-4.66693523 15.08860215 -6.21528465 14.45707591 -8.23960388 13.1430676 C-9.67710388 9.8305676 -9.67710388 9.8305676 -10.23960388 6.1430676 C-7.60302614 0.36770684 -6.19779646 0.02920144 0 0 Z " fill="#493FDB" transform="translate(101.23960387706757,85.8569324016571)"/>
<path d="M0 0 C0.9055227 0.00086648 1.8110454 0.00173296 2.74400818 0.0026257 C4.17544165 -0.00183098 4.17544165 -0.00183098 5.63579297 -0.0063777 C8.85946494 -0.01510562 12.08309996 -0.01657638 15.30678284 -0.01806521 C17.60745301 -0.02269048 19.90812241 -0.02771473 22.2087909 -0.03311038 C28.47732795 -0.04626404 34.74585428 -0.05268504 41.01440299 -0.05712104 C44.92595261 -0.06004683 48.83749926 -0.06415067 52.7490474 -0.06862521 C63.5715389 -0.08073842 74.39402715 -0.09111915 85.2165252 -0.0945003 C85.90965642 -0.09471987 86.60278765 -0.09493944 87.31692285 -0.09516566 C88.0117462 -0.09538393 88.70656955 -0.09560221 89.42244816 -0.0958271 C90.83050764 -0.09627057 92.23856711 -0.09671714 93.64662659 -0.09716678 C94.34507802 -0.09738821 95.04352944 -0.09760964 95.76314606 -0.09783778 C107.08397334 -0.10178691 118.40473629 -0.11924329 129.72553872 -0.1425263 C141.33872599 -0.16621853 152.95187777 -0.178443 164.56508946 -0.17986822 C171.08940574 -0.18091905 177.61363135 -0.18688564 184.13792527 -0.20468783 C190.27247488 -0.2211002 196.40686502 -0.22335741 202.54142869 -0.21454883 C204.79775397 -0.21377479 207.05408758 -0.21816904 209.31039155 -0.22800708 C212.38139307 -0.24061601 215.45182025 -0.23491025 218.52281678 -0.22442508 C219.42387803 -0.23248148 220.32493929 -0.24053789 221.25330544 -0.24883842 C222.07377645 -0.24224858 222.89424746 -0.23565874 223.73958123 -0.2288692 C224.80331406 -0.22976483 224.80331406 -0.22976483 225.88853645 -0.23067856 C228.33073162 0.25694403 229.22771336 1.220179 230.76039612 3.1430676 C231.31658279 5.8476616 231.18669546 8.42043583 230.76039612 11.1430676 C228.94876345 13.81738249 227.88278535 14.10227119 224.76039612 15.1430676 C221.75849357 15.24381827 218.77967382 15.28648247 215.77751648 15.28350949 C214.8474311 15.28648062 213.91734572 15.28945174 212.95907593 15.29251289 C209.82920099 15.30121412 206.69936424 15.30270934 203.56947815 15.30420041 C201.33087055 15.30882753 199.09226373 15.31385204 196.85365784 15.31924558 C190.76278523 15.33238067 184.67192364 15.33881654 178.58103907 15.34325624 C174.77834434 15.34618479 170.97565265 15.35028916 167.17295945 15.35476041 C156.64548698 15.36686989 146.11801631 15.37725207 135.59053719 15.3806355 C134.916785 15.38085507 134.24303281 15.38107463 133.54886388 15.38130085 C132.87349734 15.38151913 132.19813079 15.38173741 131.50229859 15.3819623 C130.13374126 15.38240577 128.76518392 15.38285233 127.39662659 15.38330197 C126.71777448 15.3835234 126.03892237 15.38374483 125.33949898 15.38397297 C114.33700892 15.38792191 103.33458504 15.40537921 92.33212055 15.4286615 C81.0375264 15.45236919 69.74296433 15.46457902 58.44834137 15.46600342 C52.10619578 15.46705319 45.76414356 15.47299779 39.42202103 15.49082303 C33.45815869 15.5072589 27.49446037 15.50948103 21.5305835 15.50068402 C19.33959877 15.49991128 17.14860538 15.50428746 14.95764267 15.51414227 C11.97064556 15.52679155 8.98423553 15.52102314 5.99724305 15.51056027 C5.1267174 15.51861668 4.25619176 15.52667308 3.35928655 15.53497362 C-1.31169074 15.49660858 -4.47938076 15.23247866 -8.23960388 12.1430676 C-9.73960388 9.2680676 -9.73960388 9.2680676 -10.23960388 6.1430676 C-7.55263594 0.38527917 -6.22250877 0.02931787 0 0 Z " fill="#4A3EDA" transform="translate(101.23960387706757,169.8569324016571)"/>
<path d="M0 0 C8.14604052 6.2293251 13.88216182 15.79187396 15.2734375 26.0078125 C15.6486823 33.83022328 12.96318746 39.59260528 7.86328125 45.45703125 C0.01507226 53.07775592 -8.25068813 57.18645515 -19.25 57.5625 C-28.45374429 57.16805382 -33.81612252 54.02984556 -40.10546875 47.41796875 C-46.09233772 39.77699578 -49.9617952 30.77825125 -49 21 C-45.66600354 10.74285782 -38.03872364 3.85286492 -28.625 -1 C-19.21306285 -5.4147197 -8.91822985 -5.77061931 0 0 Z " fill="#000000" transform="translate(1481,84)"/>
</svg>
