<?xml version="1.0" encoding="UTF-8"?>
<svg version="1.1" xmlns="http://www.w3.org/2000/svg" width="872" height="534">
<path d="M0 0 C287.76 0 575.52 0 872 0 C872 176.22 872 352.44 872 534 C584.24 534 296.48 534 0 534 C0 357.78 0 181.56 0 0 Z " fill="#002D2B" transform="translate(0,0)"/>
<path d="M0 0 C0.495 5.445 0.495 5.445 1 11 C-0.06476563 11.47308594 -1.12953125 11.94617188 -2.2265625 12.43359375 C-19.3294441 20.16853545 -44.22266638 32.44533276 -53 50 C-43.43 50 -33.86 50 -24 50 C-22.88625 47.97875 -21.7725 45.9575 -20.625 43.875 C-14.29310815 32.66354591 -6.86257379 22.35768964 2 13 C2.47050781 13.34933594 2.94101562 13.69867188 3.42578125 14.05859375 C4.35970703 14.74115234 4.35970703 14.74115234 5.3125 15.4375 C5.92738281 15.88996094 6.54226563 16.34242187 7.17578125 16.80859375 C9.09677101 18.17336308 9.09677101 18.17336308 12 19 C10.57979525 22.20438157 8.84451365 24.40405735 6.4375 26.9375 C-0.11469235 34.15925945 -5.8086703 42.18101921 -10 51 C-6.04 51 -2.08 51 2 51 C0.65731345 55.33791038 -0.93212679 58.86425357 -3 63 C-7.95 63 -12.9 63 -18 63 C-18.33 64.65 -18.66 66.3 -19 68 C-19.72840891 70.17402045 -20.48131306 72.3398924 -21.25 74.5 C-22.85068591 79.02516995 -24.15051488 83.47660739 -25.0546875 88.1953125 C-27.18141125 99.1433423 -29.59994451 106.51856816 -37.57421875 114.50390625 C-41.15802497 118.19159091 -42.29524124 120.75448744 -42.375 125.875 C-42.24723703 130.7016012 -41.41918666 133.40985401 -38 137 C-36.66260977 137.5739387 -35.31081604 138.11502778 -33.94921875 138.62890625 C-30.27778314 140.41415329 -30.27778314 140.41415329 -29.14892578 142.79492188 C-28.7027516 145.05921604 -28.47605149 147.2604663 -28.3125 149.5625 C-28.1192796 151.26922504 -27.91717852 152.97496388 -27.70703125 154.6796875 C-27.60213379 155.55592773 -27.49723633 156.43216797 -27.38916016 157.33496094 C-26.75105034 161.70485227 -25.65301896 165.92899407 -24.5 170.1875 C-24.19703003 171.33424194 -24.19703003 171.33424194 -23.88793945 172.50415039 C-22.87900606 176.20655023 -21.73345881 179.7854335 -20.34375 183.36328125 C-19 187 -19 187 -19 190 C-6.13 190 6.74 190 20 190 C25 199 25 199 25 202 C12.79 202 0.58 202 -12 202 C-6.52055212 210.52358559 -1.47094948 218.37491323 5 226 C5.91845703 227.13695312 5.91845703 227.13695312 6.85546875 228.296875 C15.19060647 238.26466856 27.21056816 247.80264204 40 251 C40 245.39 40 239.78 40 234 C48.49609375 233.90234375 48.49609375 233.90234375 51 234 C52 235 52 235 52.09765625 238.59765625 C52.0909822 240.08596867 52.07902183 241.57426432 52.0625 243.0625 C52.05798828 243.82111328 52.05347656 244.57972656 52.04882812 245.36132812 C52.0370068 247.24091871 52.01907078 249.12046899 52 251 C74.76324294 242.73690309 89.92521268 225.31840579 102 205 C102.33 204.01 102.66 203.02 103 202 C102.26475098 202.00523682 101.52950195 202.01047363 100.77197266 202.01586914 C97.38965739 202.03685916 94.0073559 202.04972951 90.625 202.0625 C89.46871094 202.07087891 88.31242188 202.07925781 87.12109375 202.08789062 C80.34599441 202.10702932 73.72360274 201.85222001 67 201 C67.53800794 196.42693254 68.97518642 193.47729352 72 190 C74.89217099 189.10865409 77.69431053 189.16155558 80.703125 189.1953125 C81.95980988 189.17475296 81.95980988 189.17475296 83.24188232 189.15377808 C85.91179997 189.11645464 88.57985835 189.12019413 91.25 189.125 C93.0625291 189.10687471 94.87503356 189.08607254 96.6875 189.0625 C101.12531188 189.01062759 105.56190157 188.99557076 110 189 C115.09931668 175.35600666 120.08103749 161.39527712 121.16748047 146.7409668 C121.56827438 141.37410487 121.56827438 141.37410487 123.9609375 139.30078125 C124.75757813 138.97464844 125.55421875 138.64851562 126.375 138.3125 C129.23894646 136.93288827 130.88937097 136.12068621 133.0625 133.75 C134.78161349 128.70726711 135.0643915 124.43828691 132.8984375 119.4765625 C130.97827464 116.13938107 129.05432957 113.06435318 126.33081055 110.31494141 C120.99534099 104.83405484 119.42643647 99.90584052 117.9375 92.5 C115.72494296 82.6049954 112.8807989 73.35795479 109 64 C108.04738281 64.03222656 107.09476563 64.06445312 106.11328125 64.09765625 C96.04446352 64.00452227 96.04446352 64.00452227 92.95703125 61.03515625 C91.03910836 57.56489694 90 54.9880078 90 51 C93.96 51 97.92 51 102 51 C96.09350878 40.7015025 89.31008793 31.22444825 81.21484375 22.5234375 C80 21 80 21 80 19 C81.79036458 18.0234375 83.58072917 17.046875 85.37109375 16.0703125 C87.16618315 15.08589976 87.16618315 15.08589976 88 13 C92.26719509 14.5517073 94.52288935 17.7639149 97.1875 21.25 C97.66582275 21.8675415 98.14414551 22.48508301 98.63696289 23.12133789 C105.14335868 31.64729476 110.68023605 40.69041308 116 50 C125.57 50 135.14 50 145 50 C130.60426072 34.00473414 115.97034209 23.63754257 96.96826172 14.02392578 C94.58176335 12.78242564 92.28008997 11.42677662 90 10 C90.66 6.7 91.32 3.4 92 0 C97.5411476 0.57627935 101.97709232 2.5587898 106.9375 4.9375 C107.77289307 5.33791504 108.60828613 5.73833008 109.46899414 6.15087891 C122.62549642 12.6169331 133.5487627 20.79040981 144 31 C145.18335938 32.09054688 145.18335938 32.09054688 146.390625 33.203125 C169.33583614 54.86468796 182.74150694 87.68145773 184.12548828 118.82373047 C185.18925359 157.63443847 173.61001508 192.74193419 146.83984375 221.41796875 C126.44070682 242.76202483 99.44861528 258.51788371 70 263 C68.86949219 263.18175781 67.73898437 263.36351562 66.57421875 263.55078125 C59.9611659 264.3437189 53.27656726 264.24436089 46.625 264.25 C45.55353226 264.25101212 45.55353226 264.25101212 44.4604187 264.25204468 C33.38836777 264.23544071 22.77628822 263.69208479 12 261 C11.29955566 260.83371094 10.59911133 260.66742188 9.87744141 260.49609375 C-1.18953458 257.8071547 -11.08056882 253.55612886 -21 248 C-21.58797363 247.6709668 -22.17594727 247.34193359 -22.78173828 247.00292969 C-30.85081206 242.41360108 -37.99214302 237.06490375 -45 231 C-45.78117187 230.35289062 -46.56234375 229.70578125 -47.3671875 229.0390625 C-53.36876108 223.9512233 -58.19878908 218.21485291 -63 212 C-63.96873047 210.80697266 -63.96873047 210.80697266 -64.95703125 209.58984375 C-87.60050379 180.48998393 -95.68474403 143.6614627 -91.6015625 107.46826172 C-90.54741684 100.84437531 -88.95740111 94.41159342 -87 88 C-86.66307129 86.89084229 -86.66307129 86.89084229 -86.31933594 85.75927734 C-80.09309668 66.0609789 -69.14885854 48.93362394 -55 34 C-54.17886719 33.11441406 -53.35773438 32.22882813 -52.51171875 31.31640625 C-40.27403078 18.53482104 -18.68511961 0 0 0 Z " fill="#00C6BD" transform="translate(389,57)"/>
<path d="M0 0 C0 28.05 0 56.1 0 85 C-2.31 85.99 -4.62 86.98 -7 88 C-10.90785996 91.36461485 -12.8088994 95.05077387 -13.3125 100.1875 C-12.86231794 105.67972118 -11.35499156 109.79917267 -7.26953125 113.6171875 C-3.07527673 116.58079249 0.62720267 117.75104283 5.76171875 117.4140625 C10.35729977 116.56392011 14.14804528 114.96672375 17.38671875 111.52734375 C20.63509711 106.70606639 20.72892637 101.63516153 20 96 C19.24196152 92.65053012 19.24196152 92.65053012 17 90 C16.29444977 89.69528275 15.58889954 89.39056549 14.86196899 89.07661438 C11.82885717 87.73151226 10.1375476 86.56440912 8 84 C6.66434289 77.78027889 6.92814352 71.62564464 7.0859375 65.29296875 C7.10019498 63.44308461 7.11060715 61.59316718 7.11734009 59.74324036 C7.1459689 54.88461229 7.22949851 50.02839139 7.32373047 45.1706543 C7.40892294 40.21366959 7.43705714 35.25636867 7.47265625 30.29882812 C7.53606927 23.07796114 7.61187282 15.85742428 7.74365234 8.63745117 C7.75419647 7.87436142 7.7647406 7.11127167 7.77560425 6.32505798 C7.884003 1.115997 7.884003 1.115997 9 0 C10.34267413 -0.08631874 11.68974322 -0.10706473 13.03515625 -0.09765625 C13.84404297 -0.09443359 14.65292969 -0.09121094 15.48632812 -0.08789062 C16.33646484 -0.07951172 17.18660156 -0.07113281 18.0625 -0.0625 C18.91650391 -0.05798828 19.77050781 -0.05347656 20.65039062 -0.04882812 C22.76695663 -0.03700373 24.88348685 -0.01906769 27 0 C29.46160581 5.19672338 31.46229876 10.3254016 33.1875 15.8125 C42.49170273 44.75520311 58.8321912 72.62564179 78.36328125 95.8046875 C79.08902344 96.67351562 79.81476563 97.54234375 80.5625 98.4375 C81.20316406 99.17871094 81.84382812 99.91992188 82.50390625 100.68359375 C84.40002287 103.61935655 85.03168987 105.49147816 85 109 C81.47111365 113.7949198 76.47857969 116.12744521 71.3125 118.8125 C64.25114208 122.61112121 58.01100895 126.6532511 52 132 C51.2471875 132.62261719 50.494375 133.24523437 49.71875 133.88671875 C30.49629446 150.11389441 17.93390336 173.45160715 11.3449707 197.37109375 C11.08031006 198.31726563 10.81564941 199.2634375 10.54296875 200.23828125 C10.31633545 201.08430908 10.08970215 201.93033691 9.85620117 202.80200195 C8.91856803 205.20904819 8.03617315 206.42530419 6 208 C3.5 208.0625 3.5 208.0625 1 207 C-1.65764977 202.45200093 -3.13813976 197.68157016 -4.6875 192.6875 C-9.26784628 178.50550976 -15.45228436 164.6298441 -24.69921875 152.83203125 C-26 151 -26 151 -26 149 C-26.66 149 -27.32 149 -28 149 C-29.2265625 147.49609375 -29.2265625 147.49609375 -30.625 145.4375 C-35.69209479 138.46871104 -42.43004883 133.56092679 -49.3125 128.48046875 C-49.869375 127.99191406 -50.42625 127.50335938 -51 127 C-51 126.34 -51 125.68 -51 125 C-51.63679688 124.77183594 -52.27359375 124.54367188 -52.9296875 124.30859375 C-57.15622527 122.50720679 -61.11265186 120.29408689 -65.125 118.0625 C-65.93582031 117.61970703 -66.74664062 117.17691406 -67.58203125 116.72070312 C-68.75185547 116.07198242 -68.75185547 116.07198242 -69.9453125 115.41015625 C-71.00516357 114.82439819 -71.00516357 114.82439819 -72.08642578 114.22680664 C-74.05653088 112.96375763 -75.5379944 111.83044592 -77 110 C-76.95312397 104.26103412 -75.31673031 101.6382934 -71.4375 97.5625 C-55.62126143 80.06760707 -43.64901167 58.5095706 -33.96142578 37.12158203 C-33.33426277 35.73761896 -32.70262914 34.35567057 -32.06591797 32.97607422 C-27.2557064 22.55094973 -23.4581558 11.94449309 -20 1 C-15 0 -15 0 0 0 Z " fill="#00C9C0" transform="translate(431,76)"/>
<path d="M0 0 C8.22617712 6.32782856 13.88203709 12.84793115 18.58984375 22.0546875 C18.92773926 22.71082031 19.26563477 23.36695313 19.61376953 24.04296875 C25.56583459 36.24244184 26.19275745 51.39863958 23.58984375 64.60546875 C22.66858736 67.25791943 21.59080082 69.63757696 20.27734375 72.1171875 C19.85324219 73.02210938 19.42914063 73.92703125 18.9921875 74.859375 C15.46112979 81.96083369 10.84932565 87.51546193 5.27734375 93.1171875 C4.50003906 93.94669922 4.50003906 93.94669922 3.70703125 94.79296875 C-7.78475628 105.95384093 -23.56138056 109.5032632 -38.97680664 109.41625977 C-51.20926111 109.11933697 -60.34056836 105.22922311 -70.72265625 99.1171875 C-70.72265625 98.4571875 -70.72265625 97.7971875 -70.72265625 97.1171875 C-71.40328125 96.9521875 -72.08390625 96.7871875 -72.78515625 96.6171875 C-83.6903579 91.04857389 -90.95132162 76.16601942 -94.72265625 65.1171875 C-98.92595084 51.14998984 -96.77329636 38.39797932 -91.72265625 25.1171875 C-91.37332031 24.1890625 -91.02398437 23.2609375 -90.6640625 22.3046875 C-84.24859755 7.64076763 -70.12712916 -2.92052152 -55.72265625 -8.8828125 C-36.25727953 -15.29126575 -16.75237739 -11.58485782 0 0 Z " fill="#00B9B0" transform="translate(362.72265625,395.8828125)"/>
<path d="M0 0 C1.18803223 -0.00637985 2.37606445 -0.0127597 3.60009766 -0.01933289 C5.51894775 -0.02100212 5.51894775 -0.02100212 7.4765625 -0.02270508 C8.79317871 -0.02603348 10.10979492 -0.02936188 11.46630859 -0.03279114 C14.25033386 -0.03877091 17.03432814 -0.04063215 19.81835938 -0.04003906 C23.38272151 -0.03993733 26.94688495 -0.05360616 30.51119995 -0.07081127 C33.91632391 -0.0846104 37.32141093 -0.08401998 40.7265625 -0.08520508 C42.6454126 -0.09598335 42.6454126 -0.09598335 44.60302734 -0.10697937 C46.38507568 -0.10236443 46.38507568 -0.10236443 48.203125 -0.09765625 C49.24807129 -0.09908127 50.29301758 -0.10050629 51.36962891 -0.10197449 C54.20198828 0.15435214 55.78267219 0.51494502 58.1015625 2.14526367 C60.1015625 6.14526367 60.1015625 6.14526367 60.1015625 15.14526367 C86.1715625 15.14526367 112.2415625 15.14526367 139.1015625 15.14526367 C139.7615625 13.82526367 140.4215625 12.50526367 141.1015625 11.14526367 C143.97705425 7.89874073 145.94228146 6.40951135 150.3359375 5.87182617 C155.91893058 5.64642583 159.28656968 6.20281734 163.7265625 9.66088867 C167.47873972 13.71153453 167.6964078 17.98230416 167.625 23.30932617 C166.73992295 28.10459435 163.83503748 31.15528585 160.1015625 34.14526367 C155.75606729 35.59376207 151.64299284 35.66791662 147.1015625 35.14526367 C143.24611452 33.1486924 141.50351158 31.7481873 139.1015625 28.14526367 C136.53180699 27.82898551 134.19710648 27.70783989 131.62255859 27.71289062 C130.85173447 27.70269897 130.08091034 27.69250732 129.28672791 27.68200684 C126.73274585 27.65175432 124.17913806 27.64259247 121.625 27.63354492 C119.85664613 27.61670727 118.0883043 27.59855828 116.31997681 27.57914734 C111.66096762 27.53154175 107.0020072 27.50180089 102.34283447 27.47570801 C97.59043744 27.44595556 92.83820869 27.3994071 88.0859375 27.35424805 C78.75790033 27.26809493 69.42982864 27.20080325 60.1015625 27.14526367 C60.12476563 27.96510742 60.14796875 28.78495117 60.171875 29.62963867 C60.18992187 30.70729492 60.20796875 31.78495117 60.2265625 32.89526367 C60.24976563 33.96260742 60.27296875 35.02995117 60.296875 36.12963867 C60.10037179 39.16364823 59.91940184 40.72873473 58.1015625 43.14526367 C54.38941133 45.18616249 51.10924581 45.41022492 46.921875 45.45166016 C45.08471924 45.47564125 45.08471924 45.47564125 43.21044922 45.50010681 C41.8957666 45.50546951 40.58108398 45.51083221 39.2265625 45.51635742 C37.85563055 45.52533131 36.48469956 45.53445329 35.11376953 45.54371643 C32.24574407 45.56017021 29.37783489 45.56790039 26.50976562 45.57080078 C22.84089059 45.57619319 19.17311208 45.61392157 15.50454712 45.65954494 C12.67517119 45.68932867 9.84605958 45.69652453 7.01654053 45.69752693 C5.00847651 45.70375839 3.00052788 45.73321549 0.99267578 45.76304626 C-3.98423445 45.73834914 -7.76835528 45.70235684 -12.265625 43.48535156 C-13.8984375 40.14526367 -13.8984375 40.14526367 -13.8984375 26.14526367 C-40.2984375 26.14526367 -66.6984375 26.14526367 -93.8984375 26.14526367 C-94.2284375 27.46526367 -94.5584375 28.78526367 -94.8984375 30.14526367 C-99.61014515 34.48499441 -103.37500628 35.50766196 -109.61328125 35.42651367 C-114.16802268 34.86593011 -116.8403542 32.34442475 -119.7734375 29.02026367 C-121.91769802 23.5404868 -121.6691704 18.16384984 -119.5859375 12.70776367 C-117.23832566 9.14287162 -115.98338611 7.50691321 -111.8984375 6.14526367 C-105.19665848 5.48146842 -100.41107118 6.33515673 -95.0234375 10.64526367 C-93.8984375 12.14526367 -93.8984375 12.14526367 -93.8984375 15.14526367 C-67.4984375 15.14526367 -41.0984375 15.14526367 -13.8984375 15.14526367 C-13.8984375 11.51526367 -13.8984375 7.88526367 -13.8984375 4.14526367 C-8.83696337 0.34915807 -6.19045125 0.02258178 0 0 Z " fill="#00C7BE" transform="translate(411.8984375,23.854736328125)"/>
<path d="M0 0 C6.97427342 -0.04959822 13.94844315 -0.0858136 20.92285156 -0.10986328 C23.29331248 -0.1198939 25.6637611 -0.1335216 28.03417969 -0.15087891 C31.44990073 -0.17525643 34.86545755 -0.18651279 38.28125 -0.1953125 C39.33364868 -0.20563507 40.38604736 -0.21595764 41.47033691 -0.22659302 C52.50569852 -0.22825932 61.34870284 2.18722107 69.828125 9.59765625 C76.99190134 17.24987189 78.36716938 25.39475915 78.5 35.5625 C78.51853027 36.4488916 78.53706055 37.3352832 78.55615234 38.24853516 C78.49505328 44.70227373 76.87909667 49.28817248 74 55 C73.67 55.99 73.34 56.98 73 58 C73.49628906 58.27070313 73.99257812 58.54140625 74.50390625 58.8203125 C81.59149062 63.31225402 85.73693647 70.02073359 88 78 C89.79877947 88.52736291 88.29201361 99.60735022 82.90234375 108.890625 C78.3818032 114.95887604 70.55008201 119.11249793 63.2326355 120.53977966 C60.0688221 120.99020201 57.09620617 121.12037812 53.90283203 121.11352539 C52.72206085 121.11344986 51.54128967 121.11337433 50.32473755 121.11329651 C49.06515228 121.10813522 47.80556702 121.10297394 46.5078125 121.09765625 C45.20673553 121.0962413 43.90565857 121.09482635 42.56515503 121.09336853 C39.12270147 121.08956844 35.68029075 121.07975983 32.237854 121.06866455 C28.71847106 121.05839625 25.19908113 121.05385934 21.6796875 121.04882812 C14.78643906 121.03813509 7.89322601 121.02055886 1 121 C1 114.4 1 107.8 1 101 C2.72557129 100.9906543 4.45114258 100.98130859 6.22900391 100.97167969 C11.94485156 100.93608829 17.66033463 100.88224993 23.37590981 100.81609726 C26.83965511 100.77667005 30.30314804 100.74445879 33.76708984 100.72900391 C37.75390937 100.71089447 41.74002956 100.66092188 45.7265625 100.609375 C46.96427399 100.60814636 48.20198547 100.60691772 49.47720337 100.60565186 C58.04850522 100.4865892 58.04850522 100.4865892 65 96 C67.28219901 92.57670149 67.29741163 91.15862332 67.3125 87.125 C67.33763672 85.58199219 67.33763672 85.58199219 67.36328125 84.0078125 C66.85399179 79.79111478 65.35599705 77.26339964 62.26446533 74.38298035 C59.36427662 72.61174369 57.42624835 72.60321689 54.03808594 72.56762695 C52.83714294 72.54783279 51.63619995 72.52803864 50.39886475 72.50764465 C49.10708313 72.50125473 47.81530151 72.49486481 46.484375 72.48828125 C45.14486039 72.47142992 43.80536154 72.45327906 42.46588135 72.43388367 C38.94784473 72.38642604 35.42987205 72.35658972 31.91162109 72.33044434 C28.31855645 72.30061711 24.72571203 72.2540943 21.1328125 72.20898438 C14.08865382 72.12299972 7.04445999 72.05717701 0 72 C0 65.07 0 58.14 0 51 C1.49370117 50.98018066 2.98740234 50.96036133 4.52636719 50.93994141 C10.06527642 50.86390122 15.60392241 50.77518102 21.14257812 50.68261719 C23.54031174 50.64432095 25.93810293 50.60946924 28.3359375 50.578125 C31.78145942 50.53248895 35.22658472 50.4744913 38.671875 50.4140625 C39.74491882 50.40251129 40.81796265 50.39096008 41.92352295 50.37905884 C42.92425842 50.35918915 43.9249939 50.33931946 44.95605469 50.31884766 C45.83541687 50.30552399 46.71477905 50.29220032 47.62078857 50.2784729 C50.19784768 49.97684308 51.8067944 49.36882161 54 48 C56.95927851 44.19903054 57.38532178 41.31832235 57.3125 36.5625 C57.30669922 34.92474609 57.30669922 34.92474609 57.30078125 33.25390625 C56.97742324 29.75576056 56.57434132 27.15321965 55 24 C49.49644857 21.35302962 43.67166308 21.65226237 37.6953125 21.5859375 C36.61619598 21.56657135 35.53707947 21.5472052 34.42526245 21.5272522 C30.99192105 21.46766058 27.55854576 21.42115239 24.125 21.375 C21.79165236 21.33680147 19.45831854 21.29774865 17.125 21.2578125 C11.41677941 21.16197566 5.70849283 21.07786898 0 21 C0 14.07 0 7.14 0 0 Z " fill="#009A92" transform="translate(55,384)"/>
<path d="M0 0 C9.66121447 6.12209898 17.90895688 14.85917322 21.171875 26.03515625 C23.25892793 37.69505528 21.64729103 47.83235323 15.70703125 57.98828125 C15.02640625 58.87515625 14.34578125 59.76203125 13.64453125 60.67578125 C12.96390625 61.64515625 12.28328125 62.61453125 11.58203125 63.61328125 C7.79555957 68.05420483 2.67276413 70.84337695 -2.35546875 73.67578125 C-3.00386719 74.041875 -3.65226562 74.40796875 -4.3203125 74.78515625 C-12.75663466 78.69872364 -24.43252042 77.83653397 -33.0234375 74.7734375 C-44.87215167 69.19640453 -52.77305373 60.49119648 -57.4453125 48.375 C-60.97778037 37.89888285 -59.32639792 28.89065422 -55.35546875 18.67578125 C-53.48046875 15.30078125 -53.48046875 15.30078125 -51.35546875 12.67578125 C-50.93652344 12.11632812 -50.51757812 11.556875 -50.0859375 10.98046875 C-38.37295216 -3.92696714 -17.01074498 -8.44589436 0 0 Z " fill="#002E2C" transform="translate(345.35546875,408.32421875)"/>
<path d="M0 0 C21.28508203 -1.46422542 21.28508203 -1.46422542 27.12890625 1.6875 C29.13064729 4.01679866 30.54117908 6.30179083 32 9 C33.31158184 10.66321924 34.64451543 12.30986161 36 13.9375 C39 17.734375 39 17.734375 39 20 C39.66 20 40.32 20 41 20 C41.66 21.65 42.32 23.3 43 25 C43.66 25 44.32 25 45 25 C46.8915307 27.21418617 48.67649679 29.43566984 50.4375 31.75 C50.92798828 32.38421875 51.41847656 33.0184375 51.92382812 33.671875 C54.30871563 36.7616078 56.66825338 39.86992657 59 43 C62.35927769 41.88024077 62.80914756 41.26397398 64.79296875 38.484375 C65.33348877 37.73728271 65.87400879 36.99019043 66.4309082 36.22045898 C67.0105835 35.40520752 67.59025879 34.58995605 68.1875 33.75 C69.43316421 32.02609119 70.68063317 30.30348535 71.9296875 28.58203125 C72.58678711 27.67533691 73.24388672 26.76864258 73.92089844 25.83447266 C78.16594577 20.04713124 82.55748437 14.37008511 86.93237305 8.68066406 C87.57988525 7.83600586 88.22739746 6.99134766 88.89453125 6.12109375 C89.47050049 5.3727124 90.04646973 4.62433105 90.63989258 3.85327148 C92.04915517 2.04223687 92.04915517 2.04223687 93 0 C101.91 0 110.82 0 120 0 C118.49962287 3.00075427 117.37960453 4.94421941 115.3125 7.43359375 C114.78398438 8.07554687 114.25546875 8.7175 113.7109375 9.37890625 C113.14632812 10.05824219 112.58171875 10.73757813 112 11.4375 C107.91794844 16.40069926 103.89160293 21.38587049 100 26.5 C95.84193379 31.95662087 91.55180602 37.28934745 87.16796875 42.56640625 C86.10368208 43.86013654 85.06423469 45.17448807 84.04296875 46.50244141 C82.41335114 48.4946723 80.77000269 50.24311173 78.95703125 52.05615234 C67.34246507 64.44482847 68.40438773 77.80325947 68.75 94 C68.76199658 96.62498066 68.76855079 99.24999211 68.76953125 101.875 C68.78361619 108.25208735 68.87131255 114.62423786 69 121 C62.4 121 55.8 121 49 121 C49.0220752 119.37167236 49.04415039 117.74334473 49.06689453 116.06567383 C49.13608872 109.97286108 49.13868211 103.88146287 49.12207031 97.78833008 C49.12400634 95.16097711 49.14354562 92.53357163 49.18164062 89.90649414 C50.14723467 72.55161055 50.14723467 72.55161055 43.36328125 57.2890625 C41.61193468 55.48986408 39.82667059 53.7226736 38 52 C36.74408855 50.38465208 35.52284102 48.74139975 34.34765625 47.06640625 C33.8047998 46.32302002 33.26194336 45.57963379 32.70263672 44.8137207 C32.1613916 44.07081787 31.62014648 43.32791504 31.0625 42.5625 C26.92012207 36.90740537 22.73248408 31.30377451 18.375 25.8125 C14.31331319 20.69167063 10.31613831 15.52684786 6.375 10.3125 C5.85341309 9.62841064 5.33182617 8.94432129 4.79443359 8.23950195 C4.07247803 7.27983521 4.07247803 7.27983521 3.3359375 6.30078125 C2.69470947 5.45253784 2.69470947 5.45253784 2.04052734 4.5871582 C1 3 1 3 0 0 Z " fill="#00F3E8" transform="translate(694,384)"/>
<path d="M0 0 C6.6 0 13.2 0 20 0 C20 33.66 20 67.32 20 102 C40.13 102 60.26 102 81 102 C81 108.6 81 115.2 81 122 C54.27 122 27.54 122 0 122 C0 81.74 0 41.48 0 0 Z " fill="#00A8A0" transform="translate(173,384)"/>
<path d="M0 0 C2.57346916 1.99575159 4.85367534 3.98946937 7.0625 6.375 C5.72371733 10.39134802 3.09646084 11.82135594 -0.25 14.125 C-0.83201172 14.54910156 -1.41402344 14.97320312 -2.01367188 15.41015625 C-6.28485053 18.38014911 -6.28485053 18.38014911 -8.91796875 18.359375 C-9.58441406 18.03453125 -10.25085938 17.7096875 -10.9375 17.375 C-12.030625 16.8490625 -13.12375 16.323125 -14.25 15.78125 C-16.10573605 14.82948838 -17.95503549 13.8658654 -19.8046875 12.90234375 C-28.88994449 8.2427377 -39.36008212 7.94645512 -49.30078125 10.10546875 C-61.79180155 14.68826693 -69.88949919 24.27899839 -75.6875 35.875 C-78.5530597 43.81758394 -77.29134211 53.25194732 -75.9375 61.375 C-82.8675 61.375 -89.7975 61.375 -96.9375 61.375 C-100.18985893 45.11320535 -97.66066999 30.35655725 -88.91796875 16.2265625 C-79.08781818 2.07269679 -65.28901465 -8.4312625 -48.265625 -12.15234375 C-30.14441421 -14.72589599 -15.07706305 -10.40349361 0 0 Z " fill="#00C9C0" transform="translate(506.9375,396.625)"/>
<path d="M0 0 C24.75 0 49.5 0 75 0 C75 6.6 75 13.2 75 20 C57.18 20 39.36 20 21 20 C21 36.5 21 53 21 70 C14.07 70 7.14 70 0 70 C0 46.9 0 23.8 0 0 Z " fill="#00DED4" transform="translate(595,436)"/>
<path d="M0 0 C6.6 0 13.2 0 20 0 C20.33967021 13.61328527 20.61450317 27.22373199 20.77718258 40.84030533 C20.85528521 47.16402549 20.96109617 53.48468322 21.1315918 59.80664062 C21.29527942 65.91478999 21.38440094 72.02000623 21.42315865 78.13018036 C21.45075402 80.45408049 21.50465003 82.77783001 21.58595085 85.1004715 C22.1802177 102.79071863 22.1802177 102.79071863 18.5367012 108.15397644 C14.5964836 112.34622067 10.0079503 115.24864441 5 118 C3.35 118.99 1.7 119.98 0 121 C0 81.07 0 41.14 0 0 Z " fill="#00D7CE" transform="translate(542,384)"/>
<path d="M0 0 C1.34888732 0.00015905 2.69778075 0.00584927 4.04663086 0.01586914 C5.10991859 0.01799156 5.10991859 0.01799156 6.19468689 0.02015686 C8.46699173 0.02577096 10.73919936 0.03832576 13.01147461 0.05102539 C14.54858257 0.05603858 16.08569206 0.0606018 17.62280273 0.06469727 C21.39823103 0.07574497 25.17358632 0.09301898 28.94897461 0.11352539 C28.28994098 4.24213519 27.41899403 8.11346171 26.19897461 12.11352539 C22.09363339 26.2874407 18.79400368 40.59618785 17.30834961 55.28930664 C16.94897461 58.11352539 16.94897461 58.11352539 15.94897461 59.11352539 C13.21003376 59.20211185 10.49644191 59.22876018 7.75756836 59.21118164 C6.93772964 59.20976669 6.11789093 59.20835175 5.27320862 59.20689392 C2.64426079 59.20127828 0.01539687 59.18872318 -2.61352539 59.17602539 C-4.39151896 59.1710124 -6.16951385 59.16644915 -7.94750977 59.16235352 C-12.31538084 59.15130378 -16.68318887 59.1340287 -21.05102539 59.11352539 C-20.89873189 57.21628094 -20.74475676 55.31917143 -20.59008789 53.42211914 C-20.50452637 52.36565186 -20.41896484 51.30918457 -20.33081055 50.22070312 C-19.43307067 40.25077697 -12.41641338 0.46200146 0 0 Z " fill="#00302E" transform="translate(329.051025390625,119.886474609375)"/>
<path d="M0 0 C10.89 0 21.78 0 33 0 C38.25627934 10.44152789 43.27704755 20.57860988 46.5625 31.8125 C46.8011377 32.59713623 47.03977539 33.38177246 47.28564453 34.19018555 C49.51019662 42.30408609 49.44843051 49.17488815 50 58 C37.79 58 25.58 58 13 58 C12.278125 53.25625 11.55625 48.5125 10.8125 43.625 C8.43018818 28.50201823 4.84115862 14.52347585 0 0 Z " fill="#002E2C" transform="translate(511,120)"/>
<path d="M0 0 C12.21 0 24.42 0 37 0 C37.37125 3.485625 37.7425 6.97125 38.125 10.5625 C39.7130418 24.14594575 42.68141091 37.47137785 47.18359375 50.3984375 C48 53 48 53 48 57 C37.44 57 26.88 57 16 57 C11.17621829 48.02945857 7.17394161 39.32833899 4.0625 29.625 C3.62151978 28.27220947 3.62151978 28.27220947 3.17163086 26.89208984 C0.34911172 17.76134497 0 9.57579182 0 0 Z " fill="#002F2D" transform="translate(309,190)"/>
<path d="M0 0 C12.21 0 24.42 0 37 0 C35.57030432 21.44543513 30.56737624 37.86524751 21 57 C10.44 57 -0.12 57 -11 57 C-10.25758204 51.8030743 -9.28212391 47.44272684 -7.625 42.5625 C-3.10149592 28.59673012 -1.63130642 14.68175776 0 0 Z " fill="#002F2D" transform="translate(524,190)"/>
<path d="M0 0 C14.85 0 29.7 0 45 0 C45 22.11 45 44.22 45 67 C43.68 66.34 42.36 65.68 41 65 C40.36545898 64.72913574 39.73091797 64.45827148 39.07714844 64.17919922 C33.31747079 61.61950129 28.16785435 58.59818619 25 53 C22.90355281 42.52052983 24.09664731 31.56420782 25 21 C16.75 21 8.5 21 0 21 C0 14.07 0 7.14 0 0 Z " fill="#00CEC5" transform="translate(469,438)"/>
<path d="M0 0 C26.73 0 53.46 0 81 0 C81 6.93 81 13.86 81 21 C54.27 21 27.54 21 0 21 C0 14.07 0 7.14 0 0 Z " fill="#00DCD3" transform="translate(595,384)"/>
<path d="M0 0 C1.36966027 0.04519101 2.73946358 0.08624768 4.109375 0.12304688 C7.45156772 0.22896143 10.78644958 0.37674272 14.125 0.5625 C1.50317101 20.23514381 -17.82058124 33.63942058 -39.0625 42.625 C-39.79388184 42.93671143 -40.52526367 43.24842285 -41.27880859 43.56958008 C-46.5061266 45.6854578 -46.5061266 45.6854578 -49.875 44.5625 C-49.26914062 44.05203125 -48.66328125 43.5415625 -48.0390625 43.015625 C-37.91831232 34.23392792 -30.10820326 24.39187089 -23.078125 13.08203125 C-22.72057129 12.53426025 -22.36301758 11.98648926 -21.99462891 11.42211914 C-20.7958519 9.51609015 -20.7958519 9.51609015 -19.79833984 7.15405273 C-15.39066049 -1.5339806 -8.83445222 -0.50625105 0 0 Z " fill="#00302E" transform="translate(521.875,258.4375)"/>
<path d="M0 0 C24.55165715 -3.3316445 24.55165715 -3.3316445 31.47216797 1.8515625 C35.5664476 6.79282903 38.11225593 12.54197648 40.71435547 18.3671875 C42.54440733 22.11486681 44.91220818 25.10084806 47.6875 28.1875 C48.12956787 28.69007324 48.57163574 29.19264648 49.02709961 29.71044922 C53.47436471 34.67311218 58.1966185 39.38416919 63 44 C61 45 61 45 58.0859375 44.1015625 C36.5083284 35.5159454 18.49924709 23.15447687 3.0625 5.6875 C2.47597656 5.03136719 1.88945312 4.37523437 1.28515625 3.69921875 C0 2 0 2 0 0 Z " fill="#00322F" transform="translate(334,259)"/>
</svg>
